<svg width="95" height="107" viewBox="0 0 95 107" fill="none" xmlns="http://www.w3.org/2000/svg">
<path d="M14.0721 65.3404C12.8204 59.7059 15.6071 53.411 20.6205 50.5498C21.5043 50.0455 22.4552 49.6331 23.2177 48.9588C24.2261 48.068 24.8357 46.711 24.7217 45.3705C24.6076 44.0301 23.7259 42.7571 22.469 42.2751C20.9592 41.696 19.2591 42.2791 17.8291 43.0357C13.4997 45.3273 10.0892 49.3018 8.48149 53.9295C6.87376 58.5573 7.08538 63.7903 9.06128 68.2724" fill="white"></path>
<path d="M14.0721 65.3404C12.8204 59.7059 15.6071 53.411 20.6205 50.5498C21.5043 50.0455 22.4552 49.6331 23.2177 48.9588C24.2261 48.068 24.8357 46.711 24.7217 45.3705C24.6076 44.0301 23.7259 42.7571 22.469 42.2751C20.9592 41.696 19.2591 42.2791 17.8291 43.0357C13.4997 45.3273 10.0892 49.3018 8.48149 53.9295C6.87376 58.5573 7.08538 63.7903 9.06128 68.2724" stroke="#220143" stroke-width="3.91452" stroke-miterlimit="10"></path>
<path d="M82.5776 72.6942C85.6548 73.1492 88.2343 75.461 89.6491 78.2308C91.0639 81.0005 91.4583 84.1811 91.495 87.2912C91.5192 89.3722 91.286 91.6913 89.729 93.0714C89.0532 93.6704 88.197 94.0202 87.3534 94.3425C74.44 99.2758 60.0402 100.238 46.5844 97.0669C45.0281 96.7006 43.4157 96.2426 42.2525 95.1461C40.835 93.8093 40.3452 91.7777 40.0502 89.8527C39.5572 86.6343 39.4303 83.2764 40.4468 80.183C41.4633 77.0896 43.7856 74.2879 46.9101 73.3695" fill="white"></path>
<path d="M82.5776 72.6942C85.6548 73.1492 88.2343 75.461 89.6491 78.2308C91.0639 81.0005 91.4583 84.1811 91.495 87.2912C91.5192 89.3722 91.286 91.6913 89.729 93.0714C89.0532 93.6704 88.197 94.0202 87.3534 94.3425C74.44 99.2758 60.0402 100.238 46.5844 97.0669C45.0281 96.7006 43.4157 96.2426 42.2525 95.1461C40.835 93.8093 40.3452 91.7777 40.0502 89.8527C39.5572 86.6343 39.4303 83.2764 40.4468 80.183C41.4633 77.0896 43.7856 74.2879 46.9101 73.3695" stroke="#220143" stroke-width="3.91452" stroke-miterlimit="10"></path>
<path d="M51.1164 81.6141C51.2518 79.7221 52.1123 77.7758 53.7526 76.8227C54.9792 76.1091 56.4619 76.0333 57.8812 75.9906C62.0884 75.8661 66.3005 75.8883 70.5067 76.0578C72.0047 76.1182 73.6405 76.254 74.727 77.2868C75.947 78.4461 76.0549 80.3247 76.0547 82.0077C76.0538 84.3526 75.9996 86.6976 75.8894 89.039C75.7735 91.5019 75.4311 94.2844 73.4511 95.754C72.1501 96.72 70.4365 96.8727 68.8187 96.9647C65.6919 97.1424 62.5595 97.222 59.4276 97.2045C57.1223 97.1909 54.5925 97.0384 52.9056 95.4666C51.1533 93.8343 50.8377 91.111 51.1222 88.8505C51.4371 86.3491 50.9383 84.1041 51.1166 81.6151L51.1164 81.6141Z" fill="white" stroke="#220143" stroke-width="3.91452" stroke-miterlimit="10"></path>
<path d="M61.777 17.6463C63.2288 15.5716 64.8409 13.6096 66.5947 11.7828C68.0657 10.2503 69.8712 8.71765 71.9937 8.77328C73.3653 8.80891 74.626 9.51599 75.7558 10.2949C77.0763 11.2049 78.3097 12.2415 79.4344 13.3853C80.4929 14.4628 81.4953 15.7227 81.6911 17.2202C81.8205 18.2111 81.5826 19.2131 81.2569 20.1578C80.6779 21.8407 79.8151 23.4253 78.7163 24.8262C78.639 24.9248 78.5284 25.0332 78.4091 24.9956C78.2897 24.9579 78.3722 24.7141 78.463 24.7996" fill="white"></path>
<path d="M62.5504 18.2199C63.2635 17.2462 64.0491 16.3271 64.8579 15.4313C65.257 14.9881 65.663 14.5508 66.0622 14.1076C66.2566 13.8918 66.4525 13.6786 66.6505 13.4662C66.7444 13.3661 66.8383 13.2651 66.9334 13.1659C66.9403 13.159 67.1483 12.9411 67.0163 13.0784C66.8957 13.2052 67.1407 12.9501 67.164 12.9269C67.9478 12.1228 68.7686 11.328 69.7142 10.7136C69.7512 10.6893 69.8129 10.6386 69.8579 10.622C69.598 10.7171 69.7545 10.6849 69.8403 10.6365C69.9497 10.5738 70.0616 10.5146 70.1739 10.4583C70.4366 10.3283 70.7056 10.228 70.9806 10.1277C71.1524 10.0656 70.667 10.2011 70.9399 10.1397C70.9935 10.1278 71.0467 10.113 71.1003 10.1011C71.2344 10.0712 71.3703 10.0471 71.5072 10.0297C71.6316 10.0142 71.7562 10.0076 71.8805 9.998C72.0643 9.98355 71.5592 9.98637 71.8442 10.0004C71.9259 10.0041 72.0074 10.0068 72.0897 10.0144C72.225 10.026 72.3601 10.0435 72.4933 10.0672C72.5472 10.077 72.6001 10.087 72.6531 10.0979L72.733 10.1157C72.8376 10.1407 72.8386 10.1406 72.7359 10.1153L72.6598 10.0959C72.7125 10.1108 72.7642 10.1259 72.816 10.1419C72.8679 10.158 72.9199 10.175 72.971 10.1931C73.1129 10.2423 73.2535 10.2966 73.3919 10.3552C73.6305 10.4563 73.8579 10.6085 74.0988 10.6983C73.8611 10.61 73.9656 10.6211 74.0405 10.6654C74.1122 10.7082 74.1845 10.7489 74.2553 10.7928C74.3738 10.8642 74.4907 10.9389 74.6067 11.0137C75.566 11.6369 76.4764 12.3436 77.3355 13.0984C77.5586 13.2948 77.7782 13.4947 77.9945 13.6981C78.0359 13.7374 78.0788 13.7864 78.1234 13.8204C77.8991 13.6489 78.0589 13.7587 78.118 13.8172C78.2349 13.9314 78.35 14.0469 78.4643 14.1635C78.8502 14.5563 79.2206 14.9653 79.5522 15.4058C79.6286 15.5072 79.7032 15.6099 79.7751 15.714C79.8143 15.7715 79.8537 15.8299 79.8922 15.8895C79.9486 15.9761 79.9826 16.1254 79.8785 15.8638C79.9786 16.1181 80.1449 16.3516 80.2491 16.6072C80.2602 16.6352 80.377 16.9948 80.389 16.996C80.35 16.9929 80.3219 16.724 80.3639 16.9137C80.379 16.9817 80.3958 17.0484 80.4098 17.1156C80.4351 17.2395 80.4547 17.3652 80.4685 17.4908C80.4763 17.5638 80.4822 17.6361 80.4862 17.7098C80.5049 18.0424 80.506 17.5099 80.4871 17.769C80.463 18.0931 80.4367 18.4087 80.3744 18.7286C80.3632 18.7866 80.3509 18.8439 80.3377 18.9013C80.3245 18.9586 80.3112 19.016 80.297 19.0735L80.3333 18.9316C80.3172 19.0962 80.2324 19.2849 80.1824 19.4408C79.988 20.0435 79.7533 20.6344 79.4863 21.2083C79.3597 21.4814 79.2247 21.7518 79.0822 22.0173C79.0489 22.0797 79.0197 22.1493 78.9797 22.2067C79.1664 21.9385 79.0005 22.167 78.966 22.2275C78.8863 22.364 78.8056 22.4997 78.7226 22.6337C78.5557 22.9019 78.3821 23.1652 78.1999 23.4237C78.1092 23.553 78.0153 23.6797 77.9215 23.8074C77.8878 23.854 77.853 23.8997 77.8193 23.9453C77.7845 23.991 77.7498 24.0367 77.715 24.0825C77.9069 23.8492 78.1758 23.7479 78.5215 23.7776L79.0926 24.0054L79.4908 24.6477L79.4224 25.2327L79.4326 25.2015L79.0972 25.654L79.1182 25.636L78.2991 25.8696L78.3348 25.8702C78.7826 25.8739 79.1683 25.7335 79.3989 25.3213C79.6194 24.9274 79.5601 24.488 79.3063 24.125C78.8535 23.475 77.8836 23.5924 77.4391 24.17C76.9277 24.8366 77.1971 25.877 78.0176 26.1587C79.1552 26.5507 79.8435 25.4699 80.3843 24.6683C81.1328 23.5598 81.7668 22.3605 82.2429 21.1094C82.7585 19.7526 83.169 18.2471 82.8853 16.7903C82.6168 15.4095 81.8539 14.1971 80.9264 13.1615C79.9988 12.1259 78.9487 11.1709 77.8565 10.3062C76.8182 9.48397 75.7113 8.6927 74.5026 8.14213C73.2439 7.56832 71.8046 7.35676 70.4583 7.73093C69.072 8.11599 67.8712 8.89694 66.8109 9.85786C66.2127 10.3999 65.6647 10.9997 65.1233 11.5976C64.6132 12.1602 64.0949 12.7269 63.6323 13.3289C62.7021 14.5396 61.8533 15.8055 61.0039 17.0734C60.7228 17.4922 60.7597 18.1199 61.2041 18.4209C61.6342 18.7122 62.2332 18.6548 62.5515 18.2207L62.5504 18.2199Z" fill="#220143"></path>
<path d="M67.7357 19.9193C67.8223 19.8094 67.9055 19.717 67.968 19.5919C68.0246 19.4796 68.0898 19.373 68.1602 19.2675C68.3067 19.0479 68.4741 18.8429 68.6507 18.6465C68.6915 18.6009 68.7331 18.5552 68.775 18.5104C68.8014 18.4817 68.8279 18.454 68.8535 18.4264C68.8602 18.4185 68.9143 18.363 68.8663 18.4127C68.9588 18.3158 69.0536 18.2216 69.1473 18.1266C69.3727 17.8991 69.597 17.6709 69.8154 17.4356C69.9117 17.3313 70.0081 17.2279 70.1055 17.1244C70.1518 17.076 70.197 17.0277 70.2431 16.9783C70.2723 16.9483 70.3003 16.9174 70.3295 16.8873C70.3903 16.8239 70.3831 16.8289 70.3269 16.8897C70.5596 16.6384 70.8002 16.3929 71.0341 16.1425C71.0794 16.0942 71.1256 16.0458 71.1708 15.9975C71.2615 15.9019 71.1503 16.0194 71.1382 16.0311C71.1615 16.0078 71.1836 15.9838 71.2069 15.9605C71.3159 15.8483 71.4261 15.738 71.5376 15.6294C71.7433 15.4287 71.9544 15.2321 72.1716 15.0425C72.6551 14.6204 73.1669 14.2367 73.7138 13.9021L73.5089 14.0276C74.1552 13.6367 74.8431 13.3188 75.5695 13.107L75.3 13.1846C75.4804 13.1331 75.6618 13.0824 75.842 13.0299L75.5698 13.1089C75.9589 12.9977 76.3677 12.8993 76.7739 12.8894L76.4866 12.8935C76.6221 12.8932 76.7553 12.9041 76.8876 12.9359L76.6171 12.8662C76.7058 12.8907 76.7937 12.9231 76.8762 12.9653L76.6376 12.8315C76.6776 12.8543 76.7133 12.8816 76.7509 12.9077C76.9515 13.0461 77.0715 13.0678 77.3072 13.1228L77.049 13.0563C77.0685 13.0613 77.0882 13.0673 77.1072 13.0754C77.4452 13.1924 77.8072 13.1584 78.0917 12.9291C78.2249 12.8203 78.3248 12.6867 78.39 12.5266C78.4555 12.3616 78.4756 12.1904 78.4504 12.0141C78.4216 11.2278 77.5386 10.7714 76.8391 10.7645C76.5567 10.7619 76.2874 10.7742 76.0113 10.8271C75.7093 10.8849 75.4151 10.9691 75.1202 11.0555C74.6767 11.1867 74.2543 11.387 73.8513 11.6111C73.3862 11.8702 72.9355 12.1597 72.5127 12.4837C71.7144 13.097 71.0003 13.8245 70.3505 14.5918C69.7131 15.3425 69.1383 16.1481 68.637 16.9963C68.3643 17.4583 68.0882 17.9238 67.8574 18.4082C67.7512 18.6318 67.6565 18.8605 67.5849 19.0977C67.5476 19.2191 67.5156 19.3435 67.4896 19.4681C67.4613 19.6039 67.4869 19.7297 67.5156 19.8629C67.5379 19.9665 67.6671 20.0037 67.7345 19.9175L67.7357 19.9193Z" fill="#220143"></path>
<path d="M51.5451 17.6766C49.8399 15.6693 47.3222 14.3723 44.6973 14.1519C42.0724 13.9315 39.3646 14.778 37.3487 16.4726L34.2642 18.6257C29.4841 22.1853 25.506 26.814 22.6502 32.0447C21.5639 34.0355 20.6181 36.2468 20.8786 38.4994C21.1994 41.2646 23.33 43.558 25.8141 44.8154" fill="white"></path>
<path d="M53.0713 16.4507C50.259 13.1713 45.7633 11.5064 41.5 12.398C40.3966 12.6293 39.298 12.9864 38.2988 13.5128C37.4979 13.9356 36.7926 14.4559 36.0649 14.9855C35.2837 15.5537 34.4793 16.0927 33.6877 16.6447C30.865 18.6154 28.3371 21.0123 26.0957 23.6199C24.8 25.1273 23.612 26.7265 22.542 28.4013C21.3991 30.1917 20.2581 32.0807 19.5572 34.0954C18.7669 36.3676 18.6134 38.7768 19.5445 41.0347C20.3348 42.9514 21.833 44.6047 23.5478 45.7449C24.0397 46.0725 24.5597 46.3623 25.0855 46.6315C25.5138 46.8508 26.1837 46.7918 26.6062 46.6054C27.0369 46.4147 27.4724 45.9958 27.6308 45.5439C27.8012 45.0595 27.8394 44.4978 27.6047 44.0231C27.3662 43.5431 27.0197 43.2424 26.5432 42.9986C26.404 42.9272 26.2653 42.8528 26.1284 42.7772L26.5655 43.0219C25.7939 42.5835 25.0799 42.0594 24.4377 41.4464L24.799 41.7934C24.2599 41.2681 23.783 40.6889 23.387 40.0482L23.6513 40.4819C23.3163 39.9252 23.0516 39.3353 22.8708 38.7111L23.016 39.2159C22.8697 38.6836 22.7902 38.1423 22.7745 37.5906L22.7823 38.1158C22.772 37.3872 22.8714 36.671 23.0475 35.9651L22.9207 36.4569C23.293 35.0273 23.9517 33.7006 24.6679 32.4149L24.4232 32.8519C26.1662 29.7406 28.2972 26.8565 30.7626 24.279L30.4156 24.6402C31.9751 23.0174 33.6642 21.4674 35.4939 20.1517C36.3422 19.5419 37.2088 18.9551 38.0658 18.3568C38.6286 17.9635 39.1571 17.5248 39.7392 17.1613L39.3056 17.4256C40.0977 16.9438 40.9449 16.5726 41.8342 16.3118L41.3294 16.4571C42.2219 16.2047 43.1367 16.0688 44.0636 16.0548L43.5384 16.0626C44.4134 16.0582 45.2783 16.1661 46.1268 16.3834L45.635 16.2566C46.4859 16.4834 47.2997 16.8126 48.0696 17.2404L47.6326 16.9957C48.3705 17.4143 49.0526 17.9165 49.6704 18.4985L49.3091 18.1515C49.5584 18.3905 49.7944 18.6403 50.0194 18.9027C50.6858 19.6793 51.9588 19.9166 52.7711 19.2042C53.5466 18.5241 53.7847 17.2836 53.0726 16.4525L53.0713 16.4507Z" fill="#220143"></path>
<path d="M85.1132 62.2853C85.2754 61.4726 85.5641 59.1542 85.6139 58.3306C86.168 49.235 83.367 39.9722 77.8659 32.7064C77.0498 31.6285 76.1709 30.5877 75.1253 29.7299C72.9025 27.9073 70.01 27.0114 67.1371 26.9129C64.2641 26.8144 61.406 27.4745 58.7192 28.4961C53.0741 30.6418 48.0613 34.426 44.4512 39.2681C41.5151 43.2058 39.6701 47.7016 38.6627 52.4874C38.3657 53.8979 37.8142 55.3867 38.4793 56.7601C39.3819 58.6265 41.684 60.0435 43.361 61.1221C53.014 67.3327 65.0302 69.765 76.3383 67.7979C78.0242 67.5048 79.7381 67.0869 81.2611 66.2838C82.9199 65.4091 83.6615 64.0948 84.9258 62.8286C85.9663 61.7875 87.5029 61.0427 88.6115 62.3779C90.0083 64.0611 88.8755 66.7315 88.1575 68.4311C87.0698 71.0058 85.9361 73.6496 83.9579 75.6245C82.3425 77.2378 80.2586 78.3013 78.1274 79.1196C69.9678 82.2543 60.7446 82.0595 52.3891 79.4939C44.0337 76.9293 36.4963 72.1061 29.9557 66.3076C26.6616 63.3877 23.4078 59.8137 23.1017 55.4229C22.9638 53.4428 23.4499 51.474 24.0191 49.5719C26.3964 41.6332 30.3556 34.0936 36.0512 28.0729C41.747 22.0532 49.2348 17.6133 57.3912 16.1491C61.3963 15.4304 65.587 15.435 69.472 16.6455C73.3571 17.856 76.9165 20.3438 78.9955 23.842C81.2696 27.6674 81.6237 32.3944 80.8664 36.78C80.1092 41.1656 78.326 45.298 76.5351 49.3722C76.1009 50.3588 75.8521 51.1883 76.2362 52.1948C76.6202 53.2013 77.3968 54.0001 78.1539 54.7672C79.4924 56.1246 80.8297 57.4812 82.1682 58.8386C82.8497 59.5298 83.5588 60.2674 83.8015 61.2079C84.2174 62.8151 83.0763 64.4974 81.6006 65.2598C80.125 66.0223 78.4009 66.0845 76.7407 66.1313C76.1771 66.1468 75.4582 66.0558 75.3034 65.5138C75.1731 65.0563 75.5617 64.6285 75.9245 64.3204C77.7587 62.7616 79.828 61.4797 82.0408 60.5315" fill="white"></path>
<path d="M85.1132 62.2853C85.2754 61.4726 85.5641 59.1542 85.6139 58.3306C86.168 49.235 83.367 39.9722 77.8659 32.7064C77.0498 31.6285 76.1709 30.5877 75.1253 29.7299C72.9025 27.9073 70.01 27.0114 67.1371 26.9129C64.2641 26.8144 61.406 27.4745 58.7192 28.4961C53.0741 30.6418 48.0613 34.426 44.4512 39.2681C41.5151 43.2058 39.6701 47.7016 38.6627 52.4874C38.3657 53.8979 37.8142 55.3867 38.4793 56.7601C39.3819 58.6265 41.684 60.0435 43.361 61.1221C53.014 67.3327 65.0302 69.765 76.3383 67.7979C78.0242 67.5048 79.7381 67.0869 81.2611 66.2838C82.9199 65.4091 83.6615 64.0948 84.9258 62.8286C85.9663 61.7875 87.5029 61.0427 88.6115 62.3779C90.0083 64.0611 88.8755 66.7315 88.1575 68.4311C87.0698 71.0058 85.9361 73.6496 83.9579 75.6245C82.3425 77.2378 80.2586 78.3013 78.1274 79.1196C69.9678 82.2543 60.7446 82.0595 52.3891 79.4939C44.0337 76.9293 36.4963 72.1061 29.9557 66.3076C26.6616 63.3877 23.4078 59.8137 23.1017 55.4229C22.9638 53.4428 23.4499 51.474 24.0191 49.5719C26.3964 41.6332 30.3556 34.0936 36.0512 28.0729C41.747 22.0532 49.2348 17.6133 57.3912 16.1491C61.3963 15.4304 65.587 15.435 69.472 16.6455C73.3571 17.856 76.9165 20.3438 78.9955 23.842C81.2696 27.6674 81.6237 32.3944 80.8664 36.78C80.1092 41.1656 78.326 45.298 76.5351 49.3722C76.1009 50.3588 75.8521 51.1883 76.2362 52.1948C76.6202 53.2013 77.3968 54.0001 78.1539 54.7672C79.4924 56.1246 80.8297 57.4812 82.1682 58.8386C82.8497 59.5298 83.5588 60.2674 83.8015 61.2079C84.2174 62.8151 83.0763 64.4974 81.6006 65.2598C80.125 66.0223 78.4009 66.0845 76.7407 66.1313C76.1771 66.1468 75.4582 66.0558 75.3034 65.5138C75.1731 65.0563 75.5617 64.6285 75.9245 64.3204C77.7587 62.7616 79.828 61.4797 82.0408 60.5315" stroke="#220143" stroke-width="3.91452" stroke-miterlimit="10"></path>
<path d="M38.5885 63.8782C36.9415 62.0156 34.7939 60.5865 33.6695 58.2989C33.5418 58.0389 33.4224 57.7746 33.3255 57.5021C33.2147 57.1891 33.1785 57.052 33.1129 56.7036C32.9936 56.0674 32.8406 55.444 32.7977 54.7955C32.7928 54.723 32.7899 54.6502 32.7859 54.5766C32.7668 54.2282 32.7825 54.6731 32.7828 54.4692C32.7833 54.3059 32.7888 54.1428 32.7981 53.9792C32.8192 53.6149 32.8602 53.2517 32.9164 52.8911C32.9677 52.5639 33.032 52.2377 33.1068 51.915C33.1238 51.8432 33.1407 51.7705 33.1577 51.6987C33.2408 51.3519 33.1287 51.8029 33.1826 51.6C33.2069 51.5103 33.2313 51.4216 33.2546 51.3321C33.3301 51.0409 33.3515 50.9585 33.3187 51.0841C33.3011 51.152 33.3073 51.1273 33.3392 51.0088C33.6841 49.7278 34.1183 48.4681 34.5409 47.2111C34.9451 46.0093 35.3901 44.8223 35.8603 43.6453C36.7769 41.3513 37.8338 39.0958 39.1785 37.0192C40.6961 34.6744 42.4551 32.4234 44.5218 30.5383C44.954 30.1446 44.4111 29.4467 43.9474 29.8223C41.9062 31.479 40.0813 33.3668 38.5343 35.4933C36.9872 37.6198 35.6276 39.8757 34.4415 42.2137C33.2554 44.5518 32.2258 47.0179 31.4574 49.5372C31.005 51.0203 30.7116 52.5281 30.7329 54.0832C30.7429 54.8099 30.8171 55.529 31.002 56.2337C31.194 56.967 31.5337 57.5952 31.9326 58.2354C32.6899 59.4507 33.6228 60.5686 34.6418 61.5737C35.7027 62.6211 36.8295 63.6123 38.1242 64.3558C38.4282 64.5303 38.8629 64.1867 38.587 63.8745L38.5885 63.8782Z" fill="#220143"></path>
<path d="M9.86305 69.6104C14.1477 64.8076 20.8443 62.2741 27.2353 63.0371C33.6262 63.8001 39.5374 67.84 42.5713 73.5164C45.6042 79.1929 45.6777 86.353 42.7596 92.0896C42.2069 93.1769 41.5123 94.2556 40.4563 94.8657C38.7743 95.8378 36.6529 95.3833 34.8076 94.777C27.7431 92.4568 21.3038 88.259 16.3293 82.7324" fill="white"></path>
<path d="M9.86305 69.6104C14.1477 64.8076 20.8443 62.2741 27.2353 63.0371C33.6262 63.8001 39.5374 67.84 42.5713 73.5164C45.6042 79.1929 45.6777 86.353 42.7596 92.0896C42.2069 93.1769 41.5123 94.2556 40.4563 94.8657C38.7743 95.8378 36.6529 95.3833 34.8076 94.777C27.7431 92.4568 21.3038 88.259 16.3293 82.7324" stroke="#220143" stroke-width="3.91452" stroke-miterlimit="10"></path>
<path d="M23.5522 72.8141C21.5835 73.6478 20.136 75.5052 19.5811 77.5703C19.0593 79.5119 19.3862 81.8319 20.9357 83.1114C21.8753 83.888 23.147 84.1838 24.3637 84.1158C26.7666 83.9804 29.0334 82.4167 30.0127 80.2183C30.8572 78.3238 30.7844 75.5703 29.5165 73.8423C28.2596 72.1285 25.3468 72.0547 23.5512 72.8142L23.5522 72.8141Z" fill="white" stroke="#220143" stroke-width="3.91452" stroke-miterlimit="10"></path>
<path d="M58.5771 80.9104C59.7187 83.8187 61.0723 86.6431 62.6257 89.3537C63.025 90.0502 63.591 90.8299 64.3946 90.8045C65.2039 90.7782 65.7194 89.9526 66.0656 89.2195C67.2875 86.6298 68.2725 83.9299 69.0049 81.1616" stroke="#220143" stroke-width="3.91452" stroke-miterlimit="10"></path>
<path d="M80.592 79.1986C82.7096 84.188 82.9604 89.9445 81.2865 95.0995" stroke="#220143" stroke-width="3.91452" stroke-miterlimit="10"></path>
<mask id="mask0_14752_70" style="mask-type:luminance" maskUnits="userSpaceOnUse" x="38" y="26" width="48" height="43">
<path d="M85.1126 62.2854C85.0544 62.5463 84.9472 62.7503 84.7931 62.9582C84.7469 63.0204 84.6752 63.0905 84.6155 63.1616L84.6043 63.1594C83.5274 64.3216 82.7775 65.4936 81.2595 66.2841C79.7401 67.0847 78.0293 67.5101 76.3418 67.7984C65.0357 69.7662 53.0177 67.3352 43.3655 61.1235C41.6851 60.0484 39.3844 58.6272 38.4807 56.7599C37.819 55.3831 38.3649 53.903 38.6638 52.4854C39.668 47.698 41.5148 43.2009 44.4509 39.2633C48.0651 34.4225 53.0683 30.6398 58.7206 28.5028C61.4104 27.4749 64.2689 26.8177 67.1348 26.9152C70.0119 27.0151 72.9016 27.9055 75.1298 29.7372C76.1661 30.5924 77.0517 31.6323 77.8613 32.7061C78.9483 34.1355 79.9263 35.6504 80.7901 37.2159C84.3479 43.6148 86.0658 51.0282 85.6156 58.3264C85.5632 59.1524 85.2787 61.4791 85.1116 62.2855L85.1126 62.2854Z" fill="white"></path>
</mask>
<g mask="url(#mask0_14752_70)">
<path d="M58.6139 93.7128C58.4953 93.5939 58.3839 93.47 58.2794 93.3391C58.2282 93.2745 58.1777 93.2078 58.13 93.1397C58.1074 93.1074 58.0859 93.076 58.0643 93.0436C58.059 93.0344 58.0282 92.9866 58.018 92.9713C57.8441 92.6865 57.6993 92.3845 57.5862 92.0698C57.5729 92.0332 57.5603 91.9955 57.548 91.9588C57.5422 91.9398 57.5354 91.921 57.5276 91.8955C57.5021 91.8102 57.4795 91.7246 57.4579 91.6387C57.4178 91.4755 57.3853 91.3101 57.3605 91.1437C57.3356 90.9762 57.3166 90.8079 57.3054 90.6394C57.3045 90.6197 57.3024 90.5992 57.3015 90.5796C57.3004 90.5728 57.3005 90.553 57.2999 90.5422C57.2986 90.5068 57.2973 90.4714 57.2969 90.4358C57.2952 90.351 57.2945 90.266 57.2966 90.1806C57.3027 89.8354 57.3366 89.491 57.397 89.1516C57.4039 89.112 57.4111 89.0733 57.419 89.0335C57.422 89.0202 57.4325 88.9712 57.4345 88.958C57.4527 88.8742 57.4729 88.7901 57.4953 88.7076C57.5451 88.5172 57.6043 88.3293 57.6698 88.1444C57.7318 87.969 57.7999 87.8016 57.8712 87.6356C57.9452 87.6207 58.0207 87.6095 58.0945 87.5936C58.5618 87.4895 59.0207 87.3481 59.4749 87.1955C59.4031 87.2181 59.3302 87.2408 59.2584 87.2633C60.3011 86.9432 61.2878 86.3988 62.1737 85.7695C63.0167 85.1704 63.78 84.4475 64.4077 83.6251C64.6777 83.2713 64.9218 82.8967 65.1316 82.5044C65.3686 82.0616 65.5887 81.6123 65.7495 81.1363C66.04 80.2749 66.2127 79.3529 66.208 78.4424C66.2063 78.2378 66.1972 78.0364 66.1814 77.8369C67.227 77.6429 68.1936 77.1966 69.0585 76.5783C69.5146 76.2523 69.9073 75.8586 70.2713 75.4325C70.644 74.9972 70.9261 74.512 71.1837 74.0018C71.401 73.5728 71.5668 73.1178 71.6805 72.6507C71.814 72.1046 71.91 71.5521 71.9264 70.9897C71.9437 70.3737 71.8997 69.745 71.7696 69.1421C71.6946 68.797 71.5916 68.4571 71.4739 68.1244C71.4566 68.0745 71.4354 68.0252 71.4162 67.9756C72.834 67.3702 74.2154 66.4328 74.9466 65.1676C75.0502 64.986 75.1145 64.8597 75.1926 64.7591C75.232 64.7314 75.2752 64.7092 75.3193 64.6927C76.5799 64.1878 77.9016 63.8678 78.9597 62.8785C80.8755 61.09 80.8821 58.3376 80.0271 56.0258C79.9762 55.883 79.921 55.7448 79.9187 55.5957C79.9148 55.4301 79.9697 55.2735 80.0213 55.1145C80.3152 54.2229 80.4509 53.252 80.223 52.3439C80.1035 51.8789 79.8921 51.4483 79.6589 51.0308C78.6817 49.2685 77.3245 47.7585 76.0573 46.1946C75.881 45.9804 75.6861 45.7076 75.6747 45.4174C75.6574 45.1746 75.7771 44.9085 75.7997 44.6538C75.8521 44.1415 75.8081 43.6256 75.666 43.1283C75.3664 42.131 74.6738 41.3247 73.8161 40.7596C73.6456 40.6444 73.5102 40.339 73.5169 40.1243C73.5528 39.0277 73.2732 37.9048 72.4764 37.1169C72.0936 36.7375 71.6176 36.4639 71.1127 36.2817C70.5509 36.0832 69.8829 36.2487 69.7533 35.5764C69.5197 34.3704 68.4981 33.4606 67.3684 32.9557C67.3177 32.9207 67.2637 32.8901 67.2145 32.8519C67.1801 32.8274 67.1482 32.8054 67.1266 32.767C67.1726 32.7236 67.24 32.6908 67.3052 32.6772C67.755 32.5747 68.2325 32.6186 68.6941 32.5559C69.8635 32.396 70.4417 31.1268 70.9458 30.1912C71.2185 29.6827 71.4582 29.1583 71.6696 28.6174C71.9591 27.9085 72.1903 27.1806 72.3688 26.4377C72.8867 24.2831 73.4332 22.1282 73.3722 19.8865C73.3273 18.1726 73.2173 16.4605 72.5923 14.8309C72.2402 13.9195 71.674 13.2052 70.8932 12.6109C69.6409 11.6671 68.5154 11.9966 67.5907 12.971C66.8302 13.7785 66.4053 14.7944 65.9218 15.7755C64.7316 18.1794 63.5932 20.6123 62.3646 22.9972C62.3017 23.1203 62.2415 23.241 62.1733 23.361C61.1978 25.2195 60.1102 27.0353 58.8156 28.69C58.2038 29.4665 57.5533 30.2488 56.7852 30.8794C56.7095 30.9421 56.633 31 56.5582 31.0625C56.5244 30.3156 56.3759 29.6026 56.0107 28.9296C55.8627 28.6588 55.3936 27.8855 54.9887 28.0436C54.7898 28.1236 54.7559 28.4216 54.6858 28.5952C54.599 28.8169 54.4931 29.0295 54.3725 29.2304C54.1288 29.6407 53.8217 30.0177 53.4674 30.3305C53.369 30.4204 53.2689 30.5055 53.1604 30.581C53.1356 30.5876 53.1109 30.5942 53.0847 30.6041C52.6417 30.7194 52.2338 30.9106 51.8524 31.1533C51.8379 31.1623 51.8187 31.1731 51.8018 31.1855C51.7746 31.1223 51.7483 31.052 51.721 30.9818C51.6614 30.8799 51.6188 30.7467 51.5861 30.613C51.587 30.606 51.5841 30.5995 51.5802 30.5931C51.5511 30.4975 51.5301 30.4027 51.5096 30.3246C51.1741 29.2189 51.1381 28.0439 51.072 26.9001C50.8385 22.7913 51.4689 18.7778 52.3123 14.7791C52.6449 13.2021 52.8915 11.6052 53.1159 10.0126C53.1988 9.40565 53.2401 8.79105 53.0975 8.19783C53.0963 8.18912 53.0965 8.17721 53.0896 8.16438C53.0373 7.78531 52.9196 7.41299 52.7036 7.05131C52.3765 6.50826 51.9555 6.16517 51.3183 6.06494C50.2608 5.90548 49.2446 6.00501 48.3237 6.5653C47.7266 6.935 47.1438 7.35403 46.6237 7.82903C44.4296 9.84885 42.9196 12.331 41.7749 15.0615C40.9455 17.03 40.2582 19.0228 40.1323 21.1854C40.0021 23.3656 40.5259 25.4861 40.9278 27.605C41.2418 29.2522 41.1461 31.0314 41.0342 32.7023C40.9203 34.4328 40.6544 36.1592 40.1348 37.8155C39.9213 38.4893 39.6684 39.1511 39.4504 39.8217C36.2068 40.1651 33.5326 42.7688 32.9013 45.9178C32.4331 46.1565 31.9808 46.4285 31.5444 46.7209C30.7025 47.2872 29.9649 48.036 29.3198 48.8145C27.9361 50.4824 27.1885 52.5554 26.5815 54.6095C26.2512 55.7291 25.8906 56.8452 25.3642 57.8901C25.0604 58.4556 24.7039 58.9924 24.2756 59.4726C23.9515 59.8086 23.5954 60.1089 23.2024 60.3602C22.9953 60.4711 22.794 60.5881 22.5788 60.6844C22.3895 60.7689 22.1954 60.8412 21.9993 60.906C21.5312 61.0448 21.047 61.1355 20.5586 61.1646C20.5349 61.1651 20.5114 61.1666 20.4887 61.167C20.4246 61.1687 20.3595 61.1695 20.2951 61.1691C20.1614 61.1682 20.0281 61.1633 19.895 61.1534C19.6419 61.1346 19.3862 61.1112 19.135 61.0724C19.0631 61.0613 18.9911 61.0492 18.9198 61.0351C18.9085 61.0328 18.8973 61.0305 18.8861 61.0282C18.8933 61.0301 18.8994 61.0312 18.9045 61.0324C18.8973 61.0305 18.8891 61.0288 18.8769 61.0266C18.8545 61.022 18.8381 61.0185 18.8769 61.0266C18.8473 61.0201 18.8176 61.0137 18.7888 61.0061C18.6451 60.971 18.4983 60.9355 18.3618 60.8825C18.156 60.8023 17.9556 60.932 17.8702 61.1159C17.7562 61.3613 17.6673 61.615 17.569 61.866C17.4707 62.1161 17.3892 62.3736 17.3262 62.6352C17.1933 63.1793 17.1216 63.7351 17.1265 64.2944C17.1319 64.9169 17.2152 65.5437 17.3801 66.1474C17.191 66.1537 17.0026 66.1639 16.8162 66.1877C15.9809 66.293 15.1544 66.5296 14.3862 66.8732C12.7424 67.6092 11.3571 68.9132 10.5034 70.4984C10.0652 71.3115 9.75167 72.1713 9.58207 73.0741C8.78857 73.2138 8.00889 73.4731 7.29723 73.844C6.39556 74.3143 5.61015 74.9346 4.92734 75.6861C3.65773 77.0828 2.95408 78.9791 2.92892 80.8606C2.92737 81.0033 2.92885 81.1466 2.93518 81.2891C2.93925 81.3963 2.99288 81.6041 2.91102 81.6924C2.83411 81.7741 2.59054 81.7262 2.4862 81.7298C2.31185 81.7349 2.13864 81.7478 1.96475 81.7627C1.65405 81.7891 1.3445 81.8233 1.0361 81.8651C0.994472 81.8713 0.953681 81.8764 0.912201 81.8835C-0.496048 82.1274 -1.91736 82.7096 -3.13206 83.457C-3.33258 83.5857 -3.52918 83.7208 -3.71728 83.8665C-4.07861 84.1448 -4.41249 84.4546 -4.75599 84.7529C-4.83574 84.8222 -4.91311 84.894 -4.98827 84.9675C-5.02102 85.0001 -5.05349 85.0346 -5.0861 85.0682C-5.1004 85.0851 -5.11581 85.1013 -5.13011 85.1182C-5.20107 85.2 -5.26966 85.2844 -5.34076 85.3652C-5.37541 85.405 -5.41311 85.4442 -5.44124 85.488C-5.45414 85.5077 -5.46453 85.531 -5.48029 85.5581C-5.48495 85.5667 -5.48577 85.5678 -5.48359 85.5625C-5.56985 85.7277 -5.72033 85.8203 -5.91096 85.7626C-6.09452 85.7058 -6.1614 85.502 -6.11544 85.3319C-6.10459 85.2917 -6.0936 85.2525 -6.08165 85.2131C-6.07907 85.2038 -6.07635 85.1955 -6.07378 85.1862C-6.07163 85.174 -6.06948 85.1618 -6.07016 85.1639C-6.05299 85.0664 -6.03611 84.9669 -6.00868 84.8718C-5.96715 84.7251 -5.90637 84.5816 -5.84473 84.4438C-5.69478 84.1079 -5.5188 83.8007 -5.28719 83.515C-4.86756 82.9966 -4.32671 82.5749 -3.77267 82.2086C-3.18443 81.8195 -2.56824 81.4786 -1.91904 81.2001C-1.29124 80.9307 -0.639609 80.7151 0.0212538 80.5417C0.459199 80.4262 0.905337 80.3392 1.35529 80.2911C1.34519 79.9968 1.32818 79.7025 1.30579 79.412C1.24186 78.5755 1.11318 77.7428 0.910006 76.9281C0.476612 75.1899 -0.287533 73.5294 -1.40209 72.1209C-2.01595 71.3455 -2.74671 70.6556 -3.53794 70.0648C-4.41701 69.4089 -5.38834 68.8844 -6.38828 68.4403C-8.31825 67.5834 -10.374 67.0587 -12.4029 66.4945C-14.4639 65.9212 -16.507 65.2749 -18.4429 64.3575C-18.6376 64.2658 -18.8302 64.1687 -19.0217 64.0715C-20.1751 63.4672 -21.2644 62.7614 -22.2806 61.9477C-22.5255 61.7516 -22.7626 61.5474 -22.9946 61.3375C-23.8768 60.5139 -24.6628 59.5859 -25.3144 58.5696C-25.7271 57.8959 -26.0713 57.1842 -26.3166 56.4321C-26.5077 55.7917 -26.6398 55.1227 -26.6785 54.4557C-26.6928 54.0067 -26.6745 53.5508 -26.5986 53.1092C-26.5884 53.0513 -26.5771 52.9942 -26.566 52.9361C-26.604 53.1397 -26.565 52.936 -26.5512 52.8825C-26.5219 52.7663 -26.4894 52.6527 -26.4518 52.5392C-26.4142 52.4258 -26.3765 52.3134 -26.3367 52.2016C-26.3021 52.1015 -26.2581 52.0049 -26.2255 51.9051C-26.1108 51.7109 -26.1428 51.4426 -26.3415 51.3109C-27.6372 50.4477 -29.2013 50.0222 -30.753 50.046C-32.0097 50.0645 -33.2407 50.3493 -34.3683 50.8839C-34.5092 50.5418 -34.6599 50.2001 -34.8414 49.8778C-35.2563 49.143 -35.7342 48.4433 -36.2755 47.7965C-37.3282 46.5381 -38.6079 45.45 -40.0201 44.6151C-41.4758 43.7539 -43.0597 43.1216 -44.7058 42.7369C-46.3654 42.3483 -48.059 42.1696 -49.7629 42.2417C-50.6222 42.2784 -51.4765 42.3549 -52.3265 42.4871C-52.3788 42.4949 -52.4302 42.5084 -52.4833 42.5173C-53.267 41.5642 -54.2087 40.7395 -55.248 40.0777C-56.2993 39.4078 -57.4448 38.8765 -58.6365 38.5134C-59.8759 38.1356 -61.164 37.9095 -62.456 37.8175C-63.7569 37.7249 -65.0686 37.7664 -66.3657 37.8928C-67.6423 38.0172 -68.9093 38.253 -70.1589 38.5386C-71.5235 38.8502 -72.8712 39.2285 -74.212 39.6266C-75.5557 40.0251 -76.8903 40.4519 -78.2343 40.8485C-79.5044 41.2232 -80.7812 41.5722 -82.0745 41.8574C-83.3268 42.1325 -84.5947 42.3486 -85.8725 42.4653C-86.1643 42.4918 -86.4572 42.5116 -86.7498 42.5264C-88.0743 42.5817 -89.4316 42.5429 -90.7332 42.2792C-91.3135 42.1488 -91.8821 41.9642 -92.4162 41.6992C-92.7426 41.5201 -93.0413 41.3073 -93.321 41.0629C-93.517 40.8764 -93.6919 40.6708 -93.8385 40.4433C-93.8673 40.3961 -93.895 40.3498 -93.9255 40.3039C-93.8972 40.3481 -93.8697 40.3935 -93.8413 40.4378C-93.8986 40.3256 -93.9483 40.2103 -93.9916 40.0921C-94.1027 39.791 -94.5253 39.65 -94.803 39.7922C-96.3782 40.5971 -97.619 41.9944 -98.2407 43.65C-98.5242 44.4054 -98.6747 45.2233 -98.6697 46.0298C-98.6661 46.5665 -98.5992 47.0899 -98.482 47.6057C-98.9632 47.8761 -99.4239 48.185 -99.8542 48.5249C-100.606 49.1185 -101.266 49.8447 -101.814 50.6296C-102.373 51.43 -102.84 52.3186 -103.155 53.244C-103.232 53.4711 -103.297 53.7023 -103.358 53.935C-103.364 53.9349 -103.37 53.9348 -103.376 53.9347C-103.402 54.3908 -103.405 54.8483 -103.389 55.305C-103.331 56.3144 -103.162 57.3163 -102.873 58.2854C-102.639 58.9966 -102.338 59.685 -101.948 60.3246C-101.936 60.3427 -101.924 60.3607 -101.913 60.3778C-101.783 60.5692 -101.637 60.7652 -101.615 61.0063C-101.6 61.0268 -101.583 61.0461 -101.57 61.0669C-101.458 61.2461 -101.412 61.4372 -101.421 61.6472C-101.426 61.7767 -101.463 61.8949 -101.531 62.002C-101.581 62.1222 -101.658 62.2226 -101.762 62.3035C-101.771 62.3127 -101.779 62.3208 -101.787 62.3299C-102.021 62.5873 -102.251 62.8481 -102.487 63.1038C-102.422 63.0327 -102.357 62.9618 -102.292 62.8907C-103.016 63.68 -103.662 64.5467 -104.169 65.4917C-104.52 66.2047 -104.787 66.9558 -104.968 67.7297C-105.157 68.6718 -105.212 69.628 -105.18 70.5877C-105.125 71.5146 -104.956 72.4342 -104.69 73.3238C-104.45 74.0569 -104.142 74.769 -103.745 75.4323C-103.616 75.6219 -103.472 75.8032 -103.327 75.9795C-103.151 76.1938 -102.964 76.3995 -102.766 76.5937C-102.715 76.6365 -102.661 76.6761 -102.607 76.7146C-102.52 76.7243 -102.432 76.74 -102.349 76.7663C-102.06 76.8549 -101.841 77.0924 -101.707 77.3535C-101.701 77.3645 -101.699 77.3771 -101.695 77.3883C-101.631 77.4659 -101.582 77.5565 -101.553 77.6502C-101.509 77.7921 -101.494 77.9689 -101.556 78.1116C-101.607 78.2271 -101.641 78.3439 -101.673 78.4655C-101.726 78.6871 -101.809 78.9003 -101.89 79.1142C-101.968 79.3217 -102.039 79.532 -102.113 79.7409C-102.242 80.1083 -102.341 80.486 -102.426 80.8657C-102.562 81.5488 -102.614 82.2453 -102.594 82.9417C-102.562 83.4891 -102.497 84.0344 -102.386 84.5709C-102.267 85.1458 -102.096 85.7101 -101.922 86.2711C-101.569 87.3831 -101.143 88.4833 -100.54 89.4849C-100.334 89.8036 -100.115 90.1183 -99.8711 90.4076C-99.7294 90.5755 -99.5716 90.7252 -99.4247 90.8884C-99.375 90.9433 -99.3271 90.9995 -99.279 91.0567C-99.1438 91.2206 -99.0605 91.4022 -99.0139 91.609C-98.9903 91.7143 -98.9921 91.8155 -99.0058 91.9164C-99.0152 91.9861 -99.0306 92.0557 -99.0491 92.1247C-99.0511 92.1309 -99.052 92.138 -99.0541 92.1442C-99.0577 92.1596 -99.0614 92.175 -99.0659 92.1915C-99.0629 92.1782 -99.0607 92.166 -99.0578 92.1527C-99.0624 92.1682 -99.0702 92.1823 -99.0748 92.1978C-99.0465 92.242 -99.0218 92.2879 -98.9937 92.3312C-98.9971 92.3346 -99.0018 92.3363 -99.0052 92.3398C-99.7176 92.9255 -100.354 93.6305 -100.872 94.393C-101.903 95.9116 -102.505 97.6938 -102.641 99.5227C-102.776 101.316 -102.477 103.104 -101.883 104.793C-101.595 105.61 -101.225 106.395 -100.77 107.132C-100.484 107.595 -100.186 108.047 -99.8437 108.47C-99.5831 108.793 -99.3013 109.091 -99.0035 109.378C-99.4295 114.707 -99.0517 120.087 -97.8744 125.327C-97.8537 125.42 -97.825 125.506 -97.7912 125.587C-97.7872 125.601 -97.7805 125.612 -97.7767 125.625C-97.771 125.637 -97.766 125.65 -97.7603 125.662C-97.6683 125.902 -97.5032 126.127 -97.2381 126.313L-89.2842 131.882C-88.5775 132.377 -87.8449 132.14 -87.4032 131.637C-87.154 131.43 -86.9609 131.138 -86.8814 130.754C-86.4581 128.716 -86.5419 126.634 -87.1612 124.643C-87.8805 122.332 -89.1963 120.455 -88.3699 117.959C-87.7657 116.133 -86.804 114.389 -85.6267 112.763C-85.3609 112.654 -85.0986 112.535 -84.8431 112.397C-84.2689 112.087 -83.7166 111.723 -83.216 111.303C-82.6319 110.812 -82.1025 110.247 -81.6347 109.646C-81.4834 109.453 -81.3441 109.252 -81.2081 109.049C-80.9714 109.123 -80.7308 109.184 -80.4826 109.237C-80.4193 109.25 -80.3549 109.257 -80.2919 109.269C-80.2754 109.266 -80.2593 109.262 -80.242 109.258C-80.1054 109.232 -79.9689 109.212 -79.8309 109.195C-79.5588 109.162 -79.2861 109.139 -79.0122 109.118C-78.4928 109.078 -77.9739 109.028 -77.4709 108.891C-76.8824 108.69 -76.3123 108.412 -75.7804 108.09C-75.3268 107.793 -74.9026 107.452 -74.5241 107.063C-74.3982 106.918 -74.2791 106.767 -74.168 106.609C-74.1108 106.461 -74.0599 106.311 -73.9953 106.167C-73.8308 105.802 -73.6632 105.452 -73.3533 105.187C-73.1541 105.016 -72.8911 104.929 -72.6401 104.874C-72.528 104.849 -72.4118 104.839 -72.2972 104.831C-72.0435 104.814 -71.7901 104.808 -71.5361 104.8C-71.3088 104.785 -71.0908 104.733 -70.8736 104.671C-70.1938 104.445 -69.5556 104.125 -68.9451 103.753C-68.2002 103.273 -67.5162 102.702 -66.9084 102.059C-66.3227 101.406 -65.8148 100.683 -65.4037 99.9072C-65.2952 99.6853 -65.1953 99.4587 -65.0815 99.239C-65.1153 99.3044 -65.1491 99.3698 -65.1828 99.4361C-65.107 99.2735 -65.0366 99.1087 -64.9724 98.9408C-64.9419 98.8601 -64.9113 98.7794 -64.8848 98.6983C-64.8454 98.5777 -64.7747 98.4742 -64.7074 98.3672C-64.6624 98.2705 -64.6176 98.1728 -64.5771 98.0728C-64.4805 97.8368 -64.2631 97.6957 -64.0083 97.7053C-63.7705 97.7145 -63.5398 97.9286 -63.5071 98.1622C-63.4794 98.3619 -63.4603 98.5638 -63.4521 98.7654C-63.4548 98.7074 -63.4573 98.6504 -63.46 98.5924C-63.4368 98.7354 -63.4107 98.878 -63.4316 99.0236C-63.4437 99.1085 -63.4569 99.1925 -63.4711 99.2768C-63.5138 99.5156 -63.5655 99.7538 -63.6243 99.9901C-63.609 99.9206 -63.5947 99.8502 -63.5793 99.7806C-63.7781 100.713 -64.2419 101.601 -64.7624 102.392C-65.6751 103.78 -66.8991 104.971 -68.3082 105.849C-68.9159 106.227 -69.5621 106.539 -70.2452 106.756C-70.4672 106.826 -70.7035 106.914 -70.9359 106.954C-71.0747 106.979 -71.2173 106.985 -71.3575 106.993C-71.5175 107.002 -71.6822 107.006 -71.8456 107.018C-71.8781 107.119 -71.9095 107.221 -71.9453 107.319C-72.0155 107.513 -72.0947 107.705 -72.2086 107.878C-72.3088 108.029 -72.419 108.173 -72.5338 108.313C-73.5117 109.495 -74.8215 110.375 -76.2434 110.94C-76.6283 111.093 -77.0256 111.222 -77.4322 111.302C-77.7369 111.362 -78.0464 111.396 -78.356 111.424C-78.6677 111.45 -78.9798 111.467 -79.2908 111.498C-79.401 111.509 -79.5114 111.525 -79.6219 111.541C-79.6143 111.558 -79.6067 111.576 -79.5991 111.594C-79.5767 111.645 -79.5532 111.697 -79.5298 111.747C-79.4425 111.935 -79.3486 112.114 -79.2329 112.287C-79.0871 112.503 -78.9295 112.711 -78.7634 112.91C-78.3808 113.368 -77.9333 113.776 -77.4625 114.141C-76.5776 114.83 -75.5491 115.366 -74.4873 115.721C-72.4707 116.394 -70.2713 116.428 -68.2024 115.983C-68.0925 116.123 -67.9827 116.263 -67.8665 116.399C-67.5048 116.822 -67.0811 117.203 -66.6637 117.569C-66.2952 117.892 -65.9042 118.179 -65.4928 118.445C-65.0922 118.704 -64.675 118.941 -64.2487 119.16C-64.1809 119.057 -64.1151 118.954 -64.0428 118.854C-63.3376 117.888 -62.451 117.036 -61.4823 116.338C-60.5019 115.631 -59.4332 115.04 -58.2984 114.62C-57.1365 114.19 -55.9173 113.939 -54.6906 113.778C-54.1074 113.702 -53.5216 113.649 -52.9349 113.615C-52.6445 113.599 -52.3528 113.584 -52.0609 113.572C-52.0099 113.216 -51.9316 112.864 -51.839 112.522C-51.6985 112.002 -51.5033 111.498 -51.277 111.01C-50.791 109.96 -50.1967 108.958 -49.5289 108.013C-48.8069 106.993 -48.0287 106.017 -47.1638 105.113C-46.2502 104.157 -45.209 103.294 -44.0317 102.681C-43.4173 102.361 -42.765 102.104 -42.0963 101.923C-41.7748 101.836 -41.4514 101.755 -41.1247 101.69C-40.7913 101.624 -40.4596 101.546 -40.1231 101.493C-39.8235 101.445 -39.5579 101.641 -39.4937 101.933C-39.4297 102.225 -39.6559 102.507 -39.9345 102.563C-40.0901 102.594 -40.2451 102.63 -40.3983 102.67C-40.4392 102.681 -40.4811 102.692 -40.522 102.703C-40.5401 102.708 -40.5571 102.714 -40.5752 102.718C-40.6331 102.735 -40.6216 102.732 -40.5419 102.709C-40.5435 102.706 -40.7195 102.779 -40.7438 102.789C-41.0312 102.906 -41.3137 103.035 -41.5924 103.17C-42.1056 103.419 -42.6183 103.65 -43.1058 103.945C-44.0234 104.535 -44.8519 105.244 -45.5963 106.041C-45.9047 106.382 -46.2036 106.734 -46.4817 107.1C-46.9632 107.735 -47.4115 108.393 -47.8357 109.067C-48.2055 109.655 -48.5611 110.252 -48.8854 110.866C-49.2762 111.638 -49.6104 112.445 -49.8064 113.29C-49.8666 113.618 -49.8974 113.95 -49.8924 114.282C-49.8874 114.35 -49.8833 114.418 -49.8743 114.484C-49.8273 114.847 -49.9151 115.168 -50.1639 115.439C-50.2559 115.558 -50.3724 115.647 -50.514 115.705C-50.693 115.786 -50.8809 115.82 -51.0771 115.805C-51.4778 115.818 -51.8779 115.822 -52.2793 115.837C-52.6014 115.853 -52.9239 115.874 -53.2461 115.903C-53.8778 115.959 -54.508 116.04 -55.1339 116.148C-55.7038 116.248 -56.2774 116.363 -56.8341 116.525C-57.7959 116.837 -58.7129 117.271 -59.5753 117.799C-60.3488 118.3 -61.0686 118.882 -61.7023 119.551C-61.9822 119.865 -62.2436 120.197 -62.4796 120.545C-63.1127 121.745 -63.4936 123.09 -63.4891 124.445C-69.8408 127.009 -75.3804 131.383 -79.3257 137.079C-79.5962 137.469 -79.646 137.866 -79.553 138.22C-79.5181 138.581 -79.3329 138.935 -78.9454 139.206L-70.6183 145.036C-70.2926 145.263 -69.9621 145.33 -69.6558 145.294C-69.0568 145.29 -68.5509 144.88 -68.2778 144.321C-67.3045 142.328 -67.0429 140.047 -67.5047 137.885C-66.6172 136.786 -62.9481 136.936 -61.9141 137.01C-61.8412 137.015 -61.7694 137.025 -61.6973 137.031C-61.6785 137.051 -61.6625 137.072 -61.6437 137.092C-61.0423 137.737 -60.361 138.32 -59.6186 138.796C-59.3638 138.959 -59.1013 139.108 -58.8339 139.249C-58.7793 139.403 -58.7211 139.556 -58.655 139.707C-58.394 140.306 -58.0335 140.867 -57.6325 141.382C-56.7204 142.553 -55.5262 143.506 -54.2323 144.224C-53.059 144.875 -51.8215 145.4 -50.5315 145.772C-49.3335 146.117 -48.0973 146.353 -46.8554 146.462C-46.0465 146.532 -45.2305 146.544 -44.4182 146.511C-43.1287 146.387 -41.8552 146.121 -40.616 145.745C-40.2684 145.634 -39.9226 145.518 -39.5815 145.39C-38.2377 144.885 -36.9562 144.248 -35.7368 143.492C-35.2724 143.195 -34.8181 142.883 -34.3761 142.555C-33.5153 141.916 -32.7082 141.215 -31.9127 140.497C-31.555 140.174 -31.2018 139.848 -30.8429 139.526C-30.4893 139.21 -30.1415 138.887 -29.8158 138.542C-29.5558 138.248 -29.3172 137.935 -29.1247 137.593C-29.0978 137.535 -29.0688 137.477 -29.0449 137.418C-28.8475 136.929 -28.3474 136.692 -27.8436 136.847C-27.826 136.852 -27.8104 136.864 -27.7936 136.87C-27.7527 136.879 -27.7101 136.886 -27.6725 136.899C-27.4176 136.99 -27.1409 137.221 -27.0392 137.479C-26.9564 137.69 -26.8512 137.892 -26.737 138.088C-26.4517 138.517 -26.1102 138.904 -25.7386 139.261C-25.0024 139.921 -24.173 140.475 -23.3006 140.94C-22.5621 141.31 -21.7765 141.602 -20.9719 141.791C-20.8853 141.807 -20.7986 141.825 -20.7119 141.836C-20.6991 141.769 -20.6852 141.702 -20.6734 141.635C-20.6095 141.287 -20.5447 140.95 -20.3988 140.627C-20.2278 140.246 -20.0309 139.874 -19.8071 139.522C-19.4035 138.889 -18.8949 138.317 -18.3451 137.809C-17.784 137.29 -17.1567 136.858 -16.5051 136.462C-15.9206 136.108 -15.3047 135.805 -14.671 135.548C-13.3712 135.021 -11.9893 134.633 -10.5866 134.532C-9.21322 134.433 -7.85447 134.541 -6.48744 134.673C-5.22191 134.793 -3.95266 134.913 -2.68061 134.864C-2.11653 134.832 -1.55341 134.753 -0.995165 134.668C-0.392387 134.576 0.21271 134.454 0.79799 134.278C1.03879 134.201 1.27607 134.113 1.50592 134.008C1.62451 133.954 1.74058 133.896 1.854 133.834C1.90795 133.804 1.96078 133.774 2.01885 133.738C2.04229 133.723 2.06574 133.708 2.08904 133.691C2.29116 133.553 2.48528 133.395 2.65731 133.221C2.66419 133.214 2.67106 133.207 2.67794 133.2C2.69113 133.182 2.71192 133.162 2.72457 133.148C2.76499 133.1 2.80514 133.051 2.84208 133C2.87806 132.949 2.91277 132.896 2.9443 132.842C2.95774 132.819 2.97103 132.795 2.98665 132.767C2.99116 132.758 2.99567 132.748 3.00033 132.74C3.08967 132.555 3.2599 132.456 3.46509 132.518C3.66002 132.578 3.74056 132.801 3.6865 132.983C3.66476 133.056 3.63999 133.129 3.6112 133.202C3.59838 133.236 3.58444 133.268 3.57051 133.301C3.55124 133.344 3.5392 133.37 3.53154 133.385C3.52935 133.39 3.52634 133.397 3.52552 133.398C3.45334 133.558 3.3666 133.713 3.26957 133.859C3.23485 133.912 3.19679 133.962 3.15985 134.013C3.1501 134.027 3.13968 134.044 3.12882 134.057C3.09979 134.088 3.07077 134.119 3.04285 134.151C3.05138 134.142 3.06005 134.134 3.07574 134.12C3.07216 134.122 3.06955 134.124 3.0661 134.128C3.05675 134.138 3.04836 134.148 3.03901 134.159C2.92512 134.284 2.80872 134.407 2.68299 134.519C2.46128 134.718 2.21838 134.888 1.96682 135.046C1.4284 135.384 0.83026 135.687 0.217981 135.861C0.273798 135.844 0.32879 135.828 0.384464 135.81C0.327678 135.827 0.271038 135.845 0.217981 135.861C-0.410495 136.059 -1.04286 136.231 -1.69497 136.337C-3.03277 136.556 -4.39888 136.517 -5.74613 136.433C-7.02444 136.352 -8.304 136.244 -9.58587 136.293C-10.5659 136.349 -11.5247 136.521 -12.4641 136.804C-13.5074 137.141 -14.5166 137.586 -15.4526 138.159C-16.1107 138.584 -16.7244 139.075 -17.2643 139.643C-17.6503 140.081 -17.9891 140.558 -18.2626 141.074C-18.353 141.258 -18.4344 141.449 -18.4894 141.645C-18.5175 141.809 -18.5415 141.974 -18.5697 142.137C-18.62 142.425 -18.6663 142.732 -18.7918 142.999C-18.9729 143.385 -19.2249 143.733 -19.6385 143.893C-19.9604 144.017 -20.2361 144.046 -20.5813 144.047C-21.0134 144.049 -21.452 143.94 -21.8678 143.838C-22.219 143.752 -22.5637 143.643 -22.9043 143.521C-23.6492 143.255 -24.3575 142.896 -25.0401 142.497C-25.907 141.99 -26.6972 141.386 -27.4242 140.694C-27.7308 140.403 -28.0171 140.087 -28.2696 139.746C-28.5835 140.131 -28.9317 140.49 -29.2768 140.838C-29.5512 141.115 -29.8325 141.386 -30.1071 141.662C-30.4082 141.966 -30.7049 142.273 -31.0199 142.563C-32.3433 143.785 -33.7791 144.882 -35.332 145.797C-35.2861 147.604 -34.8635 149.403 -34.042 151.016C-33.046 152.972 -31.5402 154.657 -29.7356 155.901C-28.8382 156.521 -27.856 157.039 -26.8397 157.433C-25.8383 157.82 -24.7691 158.085 -23.6983 158.18C-22.6717 158.271 -21.6067 158.207 -20.6097 157.939C-20.2111 157.831 -19.8062 157.707 -19.4218 157.544C-19.3776 157.568 -19.3333 157.593 -19.2902 157.617C-19.0408 157.757 -18.7874 157.898 -18.5267 158.014C-18.478 158.036 -18.428 158.053 -18.3784 158.073C-19.9765 160.09 -21.3173 162.292 -22.2194 164.624C-23.0695 166.82 -23.0245 168.947 -22.2002 171.139C-21.5202 172.945 -20.9569 174.486 -20.8689 176.203L-26.3735 172.35C-27.2203 168.369 -27.6086 164.337 -27.5056 160.262C-27.4582 158.384 -30.3801 158.129 -30.4282 160.023C-30.5431 164.544 -30.1273 169.04 -29.137 173.454C-29.1162 173.548 -29.0876 173.633 -29.0538 173.714C-29.05 173.727 -29.0442 173.739 -29.0395 173.751C-29.0336 173.764 -29.0275 173.778 -29.0217 173.791C-28.9288 174.029 -28.7647 174.255 -28.4996 174.441L-20.5457 180.01C-19.839 180.505 -19.1064 180.268 -18.6647 179.765C-18.4155 179.558 -18.2224 179.266 -18.1429 178.882C-17.7196 176.844 -17.8034 174.762 -18.4227 172.771C-19.142 170.46 -20.4578 168.583 -19.6314 166.087C-18.7724 163.492 -17.19 161.065 -15.2963 158.907C-14.6099 158.999 -13.9085 159.019 -13.2213 158.989C-12.262 158.946 -11.3238 158.829 -10.3993 158.565C-9.45972 158.296 -8.55517 157.945 -7.70351 157.465C-6.74425 156.922 -5.84867 156.278 -5.05049 155.517C-3.44036 153.982 -2.18448 152.133 -1.29588 150.096C-0.878837 149.141 -0.529979 148.146 -0.274626 147.135C-0.126905 146.551 -0.00732789 145.957 0.0985479 145.365C0.180242 144.903 0.248739 144.431 0.271988 143.962C0.563014 143.956 0.853026 143.944 1.14204 143.925C1.5759 143.895 2.00882 143.845 2.4393 143.779C3.39303 143.633 4.3259 143.372 5.24479 143.084C6.10124 142.816 6.94677 142.5 7.75547 142.11C9.43404 141.302 11.025 140.25 12.3563 138.942C13.0341 138.276 13.6629 137.555 14.2035 136.772C14.7399 135.994 15.1969 135.154 15.5706 134.286C15.759 133.85 15.9129 133.4 16.0418 132.943C16.2445 132.969 16.4481 132.987 16.6502 133.003C16.9684 133.027 17.2837 133.031 17.6025 133.02C18.3139 132.993 19.0228 132.936 19.7193 132.783C21.0242 132.496 22.314 132.028 23.4613 131.34C24.0818 130.968 24.6785 130.562 25.2291 130.093C25.8067 129.599 26.3377 129.045 26.8205 128.458C27.7377 127.347 28.4609 126.055 28.9596 124.703C29.0395 124.489 29.108 124.271 29.1734 124.051C29.2111 124.046 29.2506 124.045 29.2882 124.038C29.8126 123.945 30.3284 123.795 30.8272 123.609C31.3437 123.416 31.8127 123.144 32.2726 122.843C32.656 122.593 33.0138 122.304 33.3376 121.98C33.7383 121.58 34.1103 121.148 34.4209 120.675C34.7306 120.202 34.995 119.691 35.2062 119.168C35.3827 118.731 35.5068 118.281 35.6069 117.823C35.8377 117.838 36.0698 117.842 36.3022 117.834C36.8514 117.815 37.391 117.765 37.9254 117.633C38.4808 117.495 39.0247 117.307 39.5323 117.041C40.5613 116.502 41.4539 115.757 42.1687 114.842C42.8461 113.974 43.2903 112.948 43.6046 111.901C43.923 110.841 44.1599 109.745 44.6456 108.746C44.836 108.402 45.0605 108.082 45.3182 107.785C46.2452 106.827 47.4195 106.153 48.3664 105.215C48.6657 104.918 48.9563 104.604 49.202 104.26C49.4338 103.936 49.6269 103.578 49.7832 103.211C49.9344 102.857 50.0214 102.49 50.098 102.114C50.1481 101.865 50.1728 101.612 50.1807 101.358C50.6578 101.3 51.1183 101.183 51.5796 101.032C52.1437 100.846 52.6664 100.542 53.1528 100.206C53.6418 99.8684 54.0705 99.4446 54.4431 98.9826C55.1494 98.1089 55.5775 96.9887 55.6414 95.8671C55.6438 95.8302 55.6412 95.7929 55.6427 95.7561C56.2328 95.6259 56.8074 95.4178 57.3294 95.1226C57.7813 94.8675 58.2096 94.5605 58.5738 94.1887C58.6898 94.0706 58.7545 93.8601 58.6174 93.7232L58.6139 93.7128ZM-90.9426 123.005C-90.2626 124.811 -89.6993 126.352 -89.6113 128.069L-95.1171 124.214C-96.032 119.908 -96.3881 115.541 -96.1825 111.184C-95.7701 111.336 -95.3464 111.444 -94.9146 111.527C-94.5212 111.604 -94.1277 111.636 -93.7263 111.621C-93.6387 111.618 -93.5502 111.615 -93.4617 111.61C-93.447 111.63 -93.4338 111.652 -93.4181 111.671C-93.2671 111.848 -93.0838 112.003 -92.909 112.154C-92.7774 112.267 -92.6383 112.371 -92.4937 112.466C-92.2854 112.602 -92.0649 112.715 -91.8443 112.827C-91.6892 112.906 -91.5307 112.981 -91.3668 113.038C-90.9804 113.175 -90.5761 113.266 -90.1736 113.338C-89.9449 113.379 -89.716 113.402 -89.4861 113.417C-90.0555 114.413 -90.5552 115.438 -90.9627 116.491C-91.8127 118.687 -91.7677 120.814 -90.9434 123.006L-90.9426 123.005ZM-63.7408 134.058C-65.9504 134.155 -69.7124 134.525 -70.4123 137.107C-70.5346 137.356 -70.5731 137.662 -70.4824 138.02C-70.1732 139.242 -70.1622 140.428 -70.4295 141.585L-76.1031 137.613C-72.6775 133.101 -68.1374 129.578 -62.9708 127.381C-62.8968 127.58 -62.8133 127.775 -62.7128 127.966C-62.5943 128.191 -62.4602 128.407 -62.3188 128.62C-62.3011 128.646 -62.2802 128.666 -62.2626 128.691C-62.2636 128.691 -62.2652 128.694 -62.2661 128.695C-62.8193 129.233 -63.2855 129.891 -63.5184 130.634C-63.8689 131.751 -63.8084 132.944 -63.463 134.05C-63.5565 134.053 -63.6495 134.053 -63.7419 134.057L-63.7408 134.058Z" fill="#220143"></path>
<path d="M44.8277 82.4799C42.8714 83.5699 40.5664 83.9441 38.3665 83.5744C32.6558 82.6015 28.8966 76.5788 30.9749 71.0896C31.1943 70.5287 32.0522 70.7623 31.9538 71.3518C31.8153 72.1906 31.7819 73.0315 31.8799 73.8708C32.488 79.8344 39.2313 83.0888 44.1804 79.6416C44.7848 79.1481 45.678 79.24 46.0778 79.9394C47.1688 81.8085 49.868 82.1495 51.3774 80.5025C51.9166 79.9563 52.3111 79.2418 52.445 78.465C52.5549 77.86 53.4486 77.935 53.4536 78.5546C53.2225 83.1717 48.1939 85.026 44.8277 82.4799Z" fill="#220143"></path>
<path d="M44.3628 27.6031C44.3417 27.6943 44.3118 27.7858 44.2758 27.8703C44.2557 27.9148 44.2334 27.9577 44.201 27.9863C44.1639 28.0225 44.1207 28.0447 44.0726 28.0341C44.0617 28.0337 44.0492 28.0296 44.0393 28.0232C43.9969 27.9108 43.9889 27.7902 43.9676 27.6737C43.941 27.5213 43.9123 27.3683 43.8859 27.2169C43.877 27.1836 43.8723 27.1457 43.8649 27.1092C43.7839 26.6434 43.7028 26.1845 43.6268 25.7199C43.5501 25.2564 43.4836 24.7894 43.4273 24.3238C43.1181 21.6965 43.3124 19.1625 44.0982 16.7603C44.1363 16.6438 44.1774 16.5269 44.2206 16.4117C44.2321 16.3763 44.2435 16.34 44.2576 16.3082C44.2971 16.1945 44.3383 16.0786 44.383 15.9671C44.4234 15.8592 44.4663 15.7548 44.5098 15.6484C44.511 15.6433 44.5139 15.6359 44.5177 15.6344C44.5413 15.5804 44.5589 15.5323 44.5825 15.4783C44.6026 15.4338 44.6213 15.3865 44.6421 15.3399C44.6855 15.2325 44.7355 15.1232 44.7848 15.0149C44.8294 14.9222 44.8724 14.8327 44.9177 14.738C44.9635 14.6401 45.0109 14.546 45.062 14.4504C45.1255 14.3252 45.1883 14.2021 45.2539 14.0776C45.2846 14.0176 45.3183 13.9582 45.3556 13.8962C45.4846 13.6654 45.6156 13.4352 45.7602 13.2099C45.8825 13.0077 46.0255 12.8182 46.182 12.6327C46.2423 12.5594 46.3058 12.4877 46.3698 12.4188C46.7503 12.0031 47.1056 11.6575 47.6721 11.508C47.789 11.4758 47.9182 11.4536 48.034 11.4938C48.1477 11.5333 48.238 11.6277 48.3028 11.7309C48.3202 11.7619 48.3381 11.7959 48.3498 11.8278C48.3732 11.945 48.3813 12.0665 48.3763 12.186C48.3524 12.7772 48.1464 13.3886 48.0076 13.9593C47.8569 14.5763 47.6937 15.1961 47.5296 15.8092C47.4658 16.0393 47.4026 16.2664 47.3387 16.4955C47.3142 16.5773 47.2936 16.6585 47.2708 16.7381C47.248 16.8177 47.2273 16.8979 47.2035 16.9776C47.0777 17.4227 46.9482 17.8625 46.8172 18.3063L46.4257 19.6329C46.3122 20.0148 46.2016 20.3954 46.0919 20.7758C45.9805 21.1584 45.8708 21.5388 45.7654 21.9215C45.6964 22.1494 45.6299 22.3809 45.5681 22.6107C45.3828 23.2814 45.2012 23.9574 45.03 24.6358C44.9905 24.7831 44.9526 24.9342 44.9168 25.0859C44.8311 25.4351 44.7469 25.7869 44.6686 26.1389C44.6409 26.2588 44.6124 26.3798 44.5867 26.5003C44.5731 26.5686 44.5593 26.635 44.5457 26.7033C44.5129 26.8556 44.4859 27.007 44.448 27.1581C44.4302 27.231 44.4223 27.3044 44.4102 27.3764C44.396 27.4537 44.3827 27.5309 44.3611 27.6053L44.3628 27.6031Z" fill="white"></path>
<path d="M58.5485 45.6281C57.9899 45.6171 57.4927 45.0944 57.4961 44.525C57.4995 43.8953 57.9883 43.4229 58.6096 43.4424C59.2125 43.4646 59.67 43.927 59.6694 44.5226C59.6677 45.1304 59.1491 45.6418 58.5485 45.6281Z" fill="white"></path>
<path d="M61.5286 44.6946C61.4885 44.7915 61.4279 44.8896 61.329 44.9162C61.1502 44.9645 61.101 44.7799 61.0835 44.642C61.0616 44.4681 61.0325 44.2993 60.9822 44.1337C60.8832 43.8001 60.7179 43.4873 60.5103 43.2085C60.377 43.0304 60.2279 42.8656 60.0647 42.7196C59.8085 42.4866 59.486 42.3139 59.1652 42.1924C58.8023 42.0544 58.4198 41.9767 58.0302 41.9712C57.3534 41.958 56.6742 42.1608 56.1072 42.533C55.8343 42.714 55.5434 42.9403 55.3622 43.2125C55.1392 43.5425 54.9912 43.9187 54.8982 44.3045C54.8143 44.6653 54.841 45.0313 54.7372 45.392C54.7226 45.4466 54.6903 45.5088 54.6341 45.5102C54.6025 45.5109 54.5764 45.4881 54.5525 45.4669C54.4526 45.367 54.3966 45.2299 54.3528 45.0949C54.0784 44.2542 54.1668 43.3041 54.5918 42.5286C55.065 41.6648 55.9185 41.0769 56.861 40.8281C56.9636 40.799 57.0641 40.7761 57.1675 40.7598C57.5026 40.6981 57.8463 40.6807 58.1875 40.6933C58.7987 40.7183 59.4071 40.8445 59.9492 41.1231C60.7033 41.5107 61.2606 42.1986 61.5098 43.0035C61.6787 43.5543 61.7466 44.1645 61.525 44.6971L61.5286 44.6946Z" fill="white"></path>
<path d="M78.9109 58.2179C78.8452 57.9883 78.7094 57.7671 78.5038 57.6551C78.463 57.6335 78.4289 57.6168 78.3914 57.6046C78.1371 57.5642 77.8942 57.6874 77.7118 57.8916C76.9827 58.7112 76.8652 59.9842 76.0316 60.6997C75.932 60.7887 75.819 60.8669 75.688 60.8913C75.5862 60.9113 75.475 60.8893 75.3965 60.8267C75.3337 60.8034 75.2786 60.7661 75.2443 60.7148C75.1895 60.6319 75.184 60.5289 75.1822 60.4302C75.1385 59.6165 74.9398 58.812 74.6002 58.0709C74.2638 57.3254 73.7026 56.8577 73.0919 56.3232C72.6467 55.9303 72.1866 55.5376 71.8247 55.0591C71.4258 54.5317 71.3019 54.1177 71.4622 53.4716C71.5937 52.9316 71.9757 52.6068 72.4417 52.5929C72.6381 52.5697 72.8467 52.602 73.0606 52.6969C73.3877 52.8402 73.7449 52.9207 74.0698 53.0634C74.8191 53.3982 75.5571 53.7575 76.3025 54.0999C76.5061 54.1914 76.7211 54.3068 76.9307 54.339C76.9358 54.3402 76.9411 54.3424 76.9469 54.3416C77.5148 54.3413 78.2385 53.9785 78.4763 53.4485C78.8335 52.6563 78.1829 51.6864 77.7849 51.0253C77.2868 50.1901 76.7026 49.3944 76.0697 48.6445C75.9566 48.5089 75.8409 48.3698 75.7269 48.2284C74.1562 46.3198 71.3231 43.0534 68.5601 44.8204C68.197 45.0534 67.8933 45.3537 67.6189 45.6775C67.5555 45.7502 67.4975 45.8261 67.4386 45.9022C67.3246 46.0537 67.2113 46.21 67.0981 46.3673C66.9291 46.6012 66.7653 46.8442 66.5911 47.0768C66.5354 47.1544 66.4785 47.2311 66.4176 47.3074C66.3624 47.3819 66.3014 47.4572 66.24 47.5307C65.4241 48.5047 64.3584 49.2231 63.3992 50.0522C61.9066 51.3396 60.6406 52.9405 59.9777 54.7981C58.9104 57.7892 59.7562 61.0314 62.0214 63.2256C62.0476 63.2485 62.0694 63.269 62.0962 63.2897C63.2038 64.2649 64.6375 65.1046 66.1466 65.4997C66.3043 65.4555 66.4108 65.3268 66.4215 65.072C66.4288 64.8948 66.3907 64.7184 66.3922 64.5421C66.3966 64.3723 66.4403 64.2065 66.5176 64.0545C66.5559 63.9796 66.6091 63.9044 66.6865 63.8731C66.8575 63.8051 67.0224 63.9824 67.1272 64.1351C67.3766 64.5086 67.6356 64.8867 67.9803 65.1758C68.2712 65.4225 68.6314 65.6024 69.0045 65.6232C69.1558 65.5829 69.2998 65.5199 69.4324 65.4339C69.7154 65.2474 69.9294 64.9297 69.9166 64.5903C69.9075 64.3957 69.8261 64.2209 69.7124 64.0616C69.5801 63.8973 69.4161 63.7455 69.2618 63.5993C68.9087 63.2669 68.5848 62.9054 68.2964 62.5159C68.2527 62.4679 68.217 62.4139 68.1775 62.3614C68.0979 62.2515 68.0218 62.1392 67.9467 62.0266C67.7057 61.6697 67.4914 61.2929 67.3075 60.9008C67.0886 60.4327 66.9085 59.9598 66.7325 59.4744C66.7153 59.4324 66.6988 59.3874 66.6752 59.3484C66.6646 59.3371 66.6511 59.3262 66.6372 59.3194C66.5672 59.2744 66.4733 59.2883 66.4002 59.3289C66.3308 59.3679 66.2747 59.4366 66.2281 59.5029C66.0835 59.6945 65.9646 59.9061 65.8721 60.1296C65.8007 60.2945 65.7527 60.5381 65.5113 60.485C65.3929 60.46 65.3027 60.3656 65.2558 60.2499L65.2539 60.2502C65.2383 60.2188 65.225 60.1891 65.2179 60.1615C65.1766 60.0301 65.1884 59.8898 65.205 59.7548C65.2512 59.4066 65.3268 59.063 65.4356 58.7302C65.5874 58.2733 65.8125 57.8174 66.1941 57.5292C66.3916 57.3801 66.6622 57.2766 66.8847 57.389C66.9091 57.4002 66.9321 57.4156 66.9547 57.434C66.9666 57.4411 66.9778 57.4503 66.9859 57.458C66.9999 57.4658 67.0105 57.4771 67.0233 57.49C67.1682 57.613 67.2676 57.8287 67.3482 57.985C67.9124 59.0725 68.4809 60.1753 69.281 61.1121C69.3231 61.1622 69.3684 61.2139 69.4152 61.2623C69.4604 61.314 69.5062 61.3626 69.5527 61.4091C69.5836 61.4441 69.6196 61.4793 69.6547 61.5097C70.5579 62.3876 71.7219 63.0101 72.9951 63.0762C74.2926 63.1456 75.5588 62.9713 76.7846 62.345C78.3544 61.5438 79.4223 60.0416 78.915 58.2183L78.9109 58.2179ZM67.8023 55.9278C67.5495 55.9773 67.3441 55.7466 67.1376 55.5953C66.7193 55.2904 66.1376 55.2709 65.6538 55.4506C65.5618 55.491 65.4711 55.5263 65.3837 55.5709C65.2947 55.6178 65.21 55.6798 65.1296 55.7383C64.949 55.868 64.7815 56.0126 64.6228 56.1697C64.5558 56.2381 64.4909 56.3071 64.4283 56.3787C64.417 56.3893 64.4061 56.4028 64.3947 56.4124C64.3306 56.4872 64.2571 56.5585 64.1643 56.593C63.9823 56.6597 63.7743 56.5382 63.6838 56.3686C63.5911 56.1974 63.5923 55.9924 63.6183 55.8016C63.7528 54.7625 64.5813 53.8261 65.6147 53.6429C66.6481 53.4597 67.7872 54.1077 68.0888 55.1126C68.1337 55.2682 68.1635 55.4349 68.1227 55.5933C68.0819 55.7518 67.9612 55.8983 67.8023 55.9278Z" fill="white"></path>
<path d="M58.5485 45.6281C57.9899 45.6171 57.4927 45.0944 57.4961 44.525C57.4995 43.8953 57.9883 43.4229 58.6096 43.4424C59.2125 43.4646 59.67 43.927 59.6694 44.5226C59.6677 45.1304 59.1491 45.6418 58.5485 45.6281Z" fill="white"></path>
<path d="M61.5286 44.6946C61.4885 44.7915 61.4279 44.8896 61.329 44.9162C61.1502 44.9645 61.101 44.7799 61.0835 44.642C61.0616 44.4681 61.0325 44.2993 60.9822 44.1337C60.8832 43.8001 60.7179 43.4873 60.5103 43.2085C60.377 43.0304 60.2279 42.8656 60.0647 42.7196C59.8085 42.4866 59.486 42.3139 59.1652 42.1924C58.8023 42.0544 58.4198 41.9767 58.0302 41.9712C57.3534 41.958 56.6742 42.1608 56.1072 42.533C55.8343 42.714 55.5434 42.9403 55.3622 43.2125C55.1392 43.5425 54.9912 43.9187 54.8982 44.3045C54.8143 44.6653 54.841 45.0313 54.7372 45.392C54.7226 45.4466 54.6903 45.5088 54.6341 45.5102C54.6025 45.5109 54.5764 45.4881 54.5525 45.4669C54.4526 45.367 54.3966 45.2299 54.3528 45.0949C54.0784 44.2542 54.1668 43.3041 54.5918 42.5286C55.065 41.6648 55.9185 41.0769 56.861 40.8281C56.9636 40.799 57.0641 40.7761 57.1675 40.7598C57.5026 40.6981 57.8463 40.6807 58.1875 40.6933C58.7987 40.7183 59.4071 40.8445 59.9492 41.1231C60.7033 41.5107 61.2606 42.1986 61.5098 43.0035C61.6787 43.5543 61.7466 44.1645 61.525 44.6971L61.5286 44.6946Z" fill="white"></path>
</g>
<path d="M85.1126 62.2854C85.0544 62.5463 84.9472 62.7503 84.7931 62.9582C84.7469 63.0204 84.6752 63.0905 84.6155 63.1616L84.6043 63.1594C83.5274 64.3216 82.7775 65.4936 81.2595 66.2841C79.7401 67.0847 78.0293 67.5101 76.3418 67.7984C65.0357 69.7662 53.0177 67.3352 43.3655 61.1235C41.6851 60.0484 39.3844 58.6272 38.4807 56.7599C37.819 55.3831 38.3649 53.903 38.6638 52.4854C39.668 47.698 41.5148 43.2009 44.4509 39.2633C48.0651 34.4225 53.0683 30.6398 58.7206 28.5028C61.4104 27.4749 64.2689 26.8177 67.1348 26.9152C70.0119 27.0151 72.9016 27.9055 75.1298 29.7372C76.1661 30.5924 77.0517 31.6323 77.8613 32.7061C78.9483 34.1355 79.9263 35.6504 80.7901 37.2159C84.3479 43.6148 86.0658 51.0282 85.6156 58.3264C85.5632 59.1524 85.2787 61.4791 85.1116 62.2855L85.1126 62.2854Z" stroke="#220143" stroke-width="3.91452" stroke-miterlimit="10"></path>
<path d="M50.1977 42.3539C49.6124 44.474 49.0236 46.6105 48.8488 48.8032C48.674 50.9959 48.9364 53.275 49.9717 55.2157C50.8976 56.952 52.3775 58.3161 53.8293 59.6438C51.2365 59.3197 49.0498 58.1397 46.7237 57.0537C44.4858 56.0091 43.1561 54.6305 44.0308 52.0746C45.3016 48.3617 46.8136 44.3418 50.1976 42.3529L50.1977 42.3539Z" fill="url(#paint0_linear_14752_70)" style="mix-blend-mode:lighten"></path>
<path d="M41.3712 26.9015C41.0823 26.1361 40.7935 25.3706 40.5084 24.6037C39.4341 21.7151 38.3964 18.7329 38.4311 15.6508C38.4649 12.5689 39.7767 9.3257 42.4391 7.77355C43.2967 7.27312 44.2526 6.96784 45.2088 6.69814C47.1421 6.15265 49.3048 5.75908 51.0854 6.68967C52.7104 7.53851 53.6258 9.29121 54.3621 10.9706C55.5943 13.7833 56.6025 16.6937 57.3765 19.6655C57.4986 20.1341 57.6146 20.6284 57.4913 21.0969C57.2842 21.8806 56.4907 22.3398 55.7563 22.6844C53.1883 23.8921 50.4664 24.7704 47.6766 25.2908" fill="white"></path>
<path d="M41.5335 27.1039C41.576 27.064 41.617 27.0203 41.6643 26.9856C41.8849 26.8252 41.9908 26.5196 41.9506 26.2554C41.8801 25.8009 41.7986 25.3589 41.6609 24.9183C41.5384 24.5269 41.4008 24.1397 41.2727 23.7502C41.1392 23.3446 41.0046 22.9381 40.8748 22.531C40.8172 22.3496 40.7596 22.1682 40.7039 21.9865C40.6713 21.8805 40.6388 21.7746 40.6072 21.6684C40.5935 21.623 40.5798 21.5776 40.5661 21.5321C40.5598 21.5093 40.5059 21.3135 40.5402 21.4439C40.5731 21.5726 40.5337 21.4202 40.528 21.4022C40.5153 21.3566 40.5026 21.311 40.4899 21.2654C40.4645 21.1742 40.4392 21.084 40.4147 20.9926C40.3583 20.7794 40.2972 20.5678 40.2398 20.3547C40.1346 19.9598 40.0382 19.5635 39.953 19.1636C39.7802 18.3533 39.654 17.531 39.5964 16.7036C39.5834 16.5165 39.5753 16.3288 39.5682 16.1409C39.5587 15.9108 39.5662 16.3004 39.5657 16.071C39.566 15.9532 39.5663 15.8354 39.5695 15.7172C39.5769 15.4074 39.6033 15.0988 39.6408 14.7915C39.6789 14.4821 39.729 14.1738 39.7925 13.8686C39.8068 13.7982 39.823 13.7275 39.8383 13.657C39.8473 13.6181 39.92 13.3282 39.8673 13.526C39.8174 13.7165 39.8808 13.4775 39.894 13.433C39.9167 13.3525 39.9403 13.2718 39.965 13.1919C40.1493 12.5878 40.3885 12.0001 40.6835 11.4418C40.7058 11.3989 40.8257 11.1803 40.7253 11.3634C40.6249 11.5465 40.7461 11.3306 40.7716 11.2892C40.8565 11.148 40.9449 11.0102 41.0375 10.8748C41.209 10.6237 41.3937 10.3816 41.5929 10.1511C41.6384 10.0979 41.685 10.0454 41.7318 9.99395C41.9351 9.77082 41.5641 10.1574 41.7186 10.0048C41.8265 9.89876 41.9357 9.79449 42.0472 9.69284C42.2798 9.48019 42.5229 9.27884 42.781 9.09803C42.8383 9.05785 42.8966 9.01751 42.9562 8.97898C42.986 8.95971 43.0159 8.94142 43.0456 8.92118C43.1633 8.84136 42.8917 9.01727 42.9066 9.00417C43.0564 8.88099 43.2717 8.79854 43.4451 8.71342C43.7965 8.54149 44.1598 8.39648 44.5285 8.2675C44.7137 8.20238 44.8997 8.1421 45.087 8.08459C45.1731 8.05794 45.2603 8.03213 45.3465 8.00646C45.3902 7.99404 45.4338 7.98162 45.4764 7.96837C45.4065 7.99063 45.2296 8.03867 45.3997 7.99163C45.7255 7.90067 46.0529 7.81344 46.3828 7.73672C47.0561 7.58028 47.7422 7.4635 48.4341 7.43194C48.4872 7.42998 48.7592 7.4232 48.5283 7.42685C48.2973 7.4305 48.5683 7.42979 48.6219 7.43074C48.7996 7.435 48.9775 7.44717 49.1535 7.46653C49.3164 7.48388 49.4783 7.50829 49.6393 7.53977C49.7127 7.55458 49.7864 7.57728 49.8602 7.58808C49.8713 7.5894 49.5802 7.508 49.7143 7.5514C49.7621 7.56705 49.8114 7.5795 49.8592 7.59515C50.0161 7.64506 50.17 7.70233 50.3212 7.76791C50.3912 7.79908 50.4612 7.83122 50.5297 7.86557C50.5638 7.88226 50.5973 7.90103 50.6314 7.91772C50.7774 7.98804 50.3995 7.77509 50.5334 7.86402C50.8109 8.04737 51.0729 8.23205 51.3224 8.4532C51.4943 8.60476 51.1342 8.25856 51.2923 8.42403C51.3427 8.4769 51.394 8.52865 51.4435 8.58262C51.5593 8.70889 51.6709 8.8407 51.776 8.97547C51.9761 9.23066 52.148 9.50195 52.3265 9.77124C52.3341 9.782 52.1784 9.52018 52.2483 9.64435C52.2671 9.67719 52.2866 9.70891 52.3053 9.74174C52.3428 9.80741 52.3803 9.87308 52.4168 9.93889C52.5021 10.0934 52.5846 10.2493 52.6634 10.4068C52.8105 10.6976 52.9485 10.9937 53.0817 11.2915C53.7454 12.7749 54.3388 14.2915 54.8715 15.826C55.1381 16.5947 55.3964 17.3676 55.6403 18.1436C55.7663 18.5454 55.8976 18.9494 56.0065 19.3566C56.0058 19.3518 55.9384 19.1174 55.9782 19.2589C55.9909 19.3045 56.0044 19.349 56.0171 19.3946C56.0424 19.4849 56.0679 19.576 56.0931 19.6663C56.1484 19.8649 56.2057 20.0641 56.2494 20.2654C56.2863 20.434 56.3024 20.6018 56.323 20.7739C56.3339 20.8672 56.3432 20.9697 56.3675 21.0601C56.3982 21.1733 56.3664 20.9791 56.3724 20.9595C56.3455 21.0584 56.3735 21.2205 56.381 21.3242L56.4484 20.7523C56.4168 20.8658 56.3871 20.979 56.3587 21.0941C56.4034 20.9291 56.4075 20.9028 56.3704 21.0132C56.3549 21.0551 56.3381 21.0952 56.3184 21.1357C56.2687 21.2341 56.2806 21.2145 56.3535 21.079C56.3513 21.0774 56.2095 21.2884 56.1861 21.2909C56.2877 21.1887 56.2987 21.1762 56.2201 21.2532C56.1862 21.2849 56.1514 21.3168 56.1164 21.3477C55.992 21.4562 55.8593 21.5551 55.7225 21.6467C55.683 21.6733 55.425 21.8551 55.63 21.7099C55.5539 21.7637 55.4661 21.8055 55.3849 21.8512C54.5638 22.3116 53.7211 22.7395 52.8735 23.1474C52.0315 23.5535 51.1752 23.9429 50.2853 24.2325C49.3879 24.5251 48.4863 24.8164 47.5807 25.0805C47.3209 25.1567 47.4646 25.5381 47.7068 25.5169C48.7567 25.4242 49.7765 25.2697 50.8016 25.0244C51.8106 24.7835 52.8236 24.5825 53.8229 24.2965C54.7957 24.0184 55.7957 23.7105 56.7069 23.2645C57.1865 23.0299 57.5967 22.7405 57.965 22.3563C57.7381 22.5938 58.0703 22.2526 58.1481 22.1569C58.2042 22.0882 58.2525 22.0138 58.2976 21.9378C58.3561 21.8391 58.4045 21.732 58.4663 21.6347C58.2582 21.9654 58.5081 21.5632 58.5334 21.514C58.5962 21.3908 58.6398 21.2647 58.6753 21.1308C58.8527 20.4732 58.6976 19.8492 58.5369 19.2072C58.4069 18.6913 58.2701 18.1773 58.1268 17.6654C57.8202 16.5741 57.4893 15.4924 57.1136 14.4224C56.7605 13.4172 56.3791 12.4221 55.9707 11.4381C55.6175 10.5853 55.2568 9.72962 54.8137 8.9179C53.8906 7.22669 52.5778 5.65571 50.6503 5.11499C48.7433 4.57914 46.7978 4.89592 44.9278 5.42804C43.8665 5.73017 42.8025 6.04657 41.8467 6.61204C40.9946 7.11659 40.2665 7.71649 39.6324 8.4825C38.5058 9.84307 37.8312 11.5421 37.4982 13.2627C36.6954 17.4216 38.1659 21.5652 39.7379 25.3534C39.9611 25.8902 40.2435 26.3725 40.5546 26.8616C40.7046 27.0985 41.0279 27.1702 41.2848 27.1478C41.026 27.1705 41.2283 27.1543 41.2938 27.1554C41.3762 27.157 41.4663 27.1644 41.5321 27.1012L41.5335 27.1039Z" fill="#220143"></path>
<path d="M46.1104 24.8419C45.515 22.2867 45.1431 19.637 45.188 17.0095C45.1985 16.3945 45.2732 15.7849 45.3965 15.1828C45.4257 15.04 45.457 14.8978 45.4883 14.7556C45.4953 14.7229 45.5033 14.6901 45.5103 14.6574C45.514 14.642 45.5463 14.5066 45.5277 14.5816C45.5109 14.6484 45.5378 14.5425 45.5393 14.5393C45.5508 14.497 45.5633 14.4546 45.5748 14.4123C45.6555 14.1362 45.7517 13.8647 45.8669 13.6012C45.9127 13.4964 45.9616 13.3932 46.0136 13.2905C46.0373 13.2434 46.0631 13.1971 46.0867 13.15C46.1264 13.0709 46.0497 13.2139 46.0497 13.2139C46.0731 13.1778 46.0929 13.1382 46.1151 13.1013C46.2355 12.8994 46.3678 12.7046 46.5102 12.5172C46.6543 12.3286 46.8098 12.1502 46.9709 11.9758C47.0501 11.8899 46.834 12.1129 46.917 12.0323C46.936 12.0137 46.954 11.9952 46.972 11.9767C47.0151 11.9336 47.0593 11.8915 47.1036 11.8503C47.1931 11.7667 47.2839 11.685 47.3781 11.6067C47.5816 11.4379 47.7773 11.2634 47.9905 11.107C48.1038 11.0239 48.2204 10.9433 48.3386 10.8664C48.3612 10.8521 48.3829 10.838 48.4055 10.8238C48.5211 10.7492 48.337 10.8626 48.3164 10.8766C48.375 10.8382 48.4374 10.8052 48.4985 10.7704C48.9732 10.503 49.4781 10.2924 50.0016 10.1394L49.7294 10.2184C50.2876 10.0603 50.8605 9.97419 51.4401 9.96624L51.1449 9.97053C51.3 9.96925 51.4544 9.97599 51.6085 9.97388C51.9244 9.96948 52.1787 9.8367 52.4136 9.63955C52.7848 9.32814 52.9391 8.65519 52.5629 8.27379C52.4744 8.18405 52.3876 8.08614 52.29 8.00863C52.0346 7.80814 51.7443 7.77212 51.4316 7.77803C51.2737 7.78071 51.1162 7.78631 50.9589 7.79978C50.6795 7.82349 50.402 7.8667 50.128 7.9272C49.4891 8.06863 48.8582 8.27714 48.2727 8.5719C47.1109 9.1561 46.083 9.98853 45.367 11.0823C44.6163 12.2297 44.1546 13.5835 44.1387 14.9611C44.1298 15.7272 44.198 16.4927 44.2678 17.2551C44.3398 18.0458 44.4365 18.8368 44.5454 19.623C44.7968 21.4278 45.1874 23.211 45.7004 24.9592C45.7681 25.1885 46.1629 25.0755 46.1083 24.8412L46.1104 24.8419Z" fill="#220143"></path>
<defs>
<linearGradient id="paint0_linear_14752_70" x1="51.2664" y1="42.5431" x2="48.3951" y2="58.6926" gradientUnits="userSpaceOnUse">
<stop stop-color="white"></stop>
<stop offset="0.281" stop-color="#F7F7F7" stop-opacity="0.964"></stop>
<stop offset="1" stop-color="#221F20" stop-opacity="0"></stop>
</linearGradient>
</defs>
</svg>