<svg xmlns="http://www.w3.org/2000/svg" fill="none" viewBox="0 0 1084 266"><path fill="#fff" d="M706.768 239.649a43.46 43.46 0 0 1-9.789-27.469v-72.24c0-51.264-24.238-80.625-67.11-80.625-57.083 0-68.135 30.998-83.332 57.37a2.74 2.74 0 0 1-3.664 1.032l-3.176-1.696a2.723 2.723 0 0 1-1.084-3.761l4.336-7.553a30.6 30.6 0 0 0 4.205-15.437V78.372c0-7.035-5.718-12.735-12.774-12.735h-62.162c-9.361 0-14.407 10.952-8.304 18.03l9.057 10.504a58.25 58.25 0 0 1 14.152 38.048v74.984a58.2 58.2 0 0 1-5.231 24.12l-7.198 15.82c-3.289 7.224 2.011 15.426 9.973 15.426h77.658c9.247 0 14.331-10.72 8.461-17.841l-6.288-7.629a43.48 43.48 0 0 1-9.918-27.632V168.09c0-14.442 3.469-28.776 10.731-41.274 8.819-15.166 20.331-22.92 34.743-22.92 19.398 0 29.82 13.773 29.82 38.649v67.209a58.2 58.2 0 0 1-4.986 23.573l-6.168 13.924c-3.198 7.213 2.103 15.323 10.016 15.323h73.712c9.22 0 14.314-10.665 8.499-17.803l-4.174-5.117zM845.211 233.749c-2.482.492-4.916.832-7.057.881-20.032 0-29.669-12.573-29.669-38.427V93.452h36.482c4.222 0 7.642-3.415 7.642-7.618v-12.45c0-4.208-3.425-7.623-7.647-7.623h-46.683a2.37 2.37 0 0 1-2.374-2.366V59.91a2.37 2.37 0 0 1 2.353-2.367H803a5.46 5.46 0 0 0 5.48-5.452V24.903c0-5.182-4.217-9.385-9.415-9.385H772.22c-4.894 0-9.22 3.16-10.667 7.818-3.095 10.196-10.558 42.42-34.818 42.42h-7.219a7.62 7.62 0 0 0-7.621 7.623v12.45a7.625 7.625 0 0 0 7.621 7.623h22.249v105.35c0 42.862 21.88 66.512 61.528 66.512 19.788 0 37.734-7.203 48.601-20.192 4.227-5.073-.174-12.643-6.688-11.373zM455.426 226.006c-11.821 2.124-19.815-7.105-19.815-21.591v-69.721c0-49.725-31.615-76.432-93.024-76.432-54.991 0-92.552 21.077-92.655 52.907-.027 5.716 2.131 11.314 5.296 16.706 5.095 7.797 14.303 13.027 24.85 13.027 16.055 0 29.068-12.07 29.068-26.961-.054-15.27-12.981-23.007-16.905-24.466 2.791-2.366 14.829-11.616 32.612-11.616 28.265 0 43.403 21.353 43.403 54.609v13.216c-21.213 0-45.013 2.123-61.75 6.192-40.953 8.92-62.536 32.154-62.536 61.093 0 32.64 26.06 53.031 67.355 53.031 28.666 0 52.482-9.996 63.647-26.713 7.057 14.113 22.688 23.012 42.796 23.012 26.011 0 39.626-13.529 43.929-29.604 1.111-4.576-2.357-7.451-6.271-6.689m-87.17-15.636c-2.211 15.561-13.002 24.849-28.639 24.849-17.132 0-28.666-11.493-28.666-29.68 0-14.091 6.32-26.421 20.108-32.348 9.29-4.09 23.794-6.322 37.192-6.689v43.868zM1077.52 226.006c-11.82 2.124-19.81-7.105-19.81-21.591v-69.721c0-49.725-31.62-76.432-93.026-76.432-54.991 0-92.552 21.077-92.655 52.907-.027 5.716 2.13 11.314 5.296 16.706 5.094 7.797 14.303 13.027 24.85 13.027 16.054 0 29.068-12.07 29.068-26.961-.054-15.27-12.981-23.007-16.905-24.466 2.791-2.366 14.829-11.616 32.612-11.616 28.265 0 43.403 21.353 43.403 54.609v13.216c-21.214 0-45.013 2.123-61.75 6.192-40.953 8.92-62.536 32.154-62.536 61.093 0 32.64 26.06 53.031 67.355 53.031 28.666 0 52.481-9.996 63.647-26.713 7.061 14.113 22.691 23.012 42.791 23.012 26.02 0 39.63-13.529 43.93-29.604 1.12-4.576-2.35-7.451-6.27-6.689m-87.167-15.636c-2.211 15.561-13.002 24.849-28.639 24.849-17.133 0-28.666-11.493-28.666-29.68 0-14.091 6.319-26.421 20.108-32.348 9.29-4.09 23.794-6.322 37.192-6.689v43.868zM254.534.01h-33.75c-7.263 0-11.615 8.051-7.621 14.097l5.783 8.759a27.36 27.36 0 0 1 2.586 25.227L160.979 199.92c-2.785 7.31-5.609 12.319-6.894 13.551-.683.659-1.832.854-2.726.189l-3.192-2.534c-1.014-.757-.954-1.864-.022-2.902 1.778-2.35 2.878-5.181 3.501-7.764.743-3.096.493-6.348-.645-9.326L99.717 56.003a37.57 37.57 0 0 1 .369-27.61l5.479-13.346c2.949-7.18-2.352-15.053-10.135-15.053H12.802C1.67 0-4.135 13.205 3.404 21.364l5.257 5.69a115.1 115.1 0 0 1 22.52 35.805l73.631 191.816c1.924 4.868 6.639 8.061 11.886 8.061h40.769c5.236 0 9.946-3.188 11.875-8.039L264.713 14.95C267.564 7.78 262.268.01 254.534.01"></path></svg>