<svg xmlns="http://www.w3.org/2000/svg" fill="none" viewBox="0 0 1084 267"><path fill="#240642" d="M706.768 240.55a43.73 43.73 0 0 1-9.789-27.573v-72.511c0-51.457-24.238-80.928-67.11-80.928-57.083 0-68.135 31.114-83.332 57.586a2.735 2.735 0 0 1-3.664 1.036l-3.176-1.703a2.74 2.74 0 0 1-1.084-3.775l4.336-7.582a30.8 30.8 0 0 0 4.205-15.494v-10.94c0-7.06-5.718-12.782-12.774-12.782h-62.162c-9.361 0-14.407 10.993-8.304 18.097l9.057 10.544a58.6 58.6 0 0 1 14.152 38.191v75.266a58.6 58.6 0 0 1-5.231 24.211l-7.198 15.879c-3.289 7.251 2.011 15.484 9.973 15.484h77.658c9.247 0 14.331-10.76 8.461-17.908l-6.288-7.658a43.74 43.74 0 0 1-9.918-27.735v-41.533c0-14.496 3.469-28.885 10.731-41.429 8.819-15.224 20.331-23.006 34.743-23.006 19.398 0 29.82 13.824 29.82 38.793v67.462a58.6 58.6 0 0 1-4.986 23.663l-6.168 13.976c-3.198 7.24 2.103 15.381 10.016 15.381h73.712c9.22 0 14.314-10.706 8.499-17.871l-4.174-5.136zM845.211 234.628c-2.482.493-4.916.835-7.057.884-20.032 0-29.669-12.621-29.669-38.572V93.803h36.482c4.222 0 7.642-3.427 7.642-7.647V73.661c0-4.225-3.425-7.653-7.647-7.653h-46.683a2.374 2.374 0 0 1-2.374-2.375v-3.498a2.377 2.377 0 0 1 2.353-2.376H803c3.024.011 5.48-2.446 5.48-5.472v-27.29c0-5.201-4.217-9.421-9.415-9.421H772.22c-4.894 0-9.22 3.173-10.667 7.848-3.095 10.234-10.558 42.579-34.818 42.579h-7.219c-4.206 0-7.621 3.422-7.621 7.652v12.496c0 4.23 3.42 7.652 7.621 7.652h22.249V199.55c0 43.024 21.88 66.762 61.528 66.762 19.788 0 37.734-7.229 48.601-20.267 4.227-5.093-.174-12.691-6.688-11.416zM455.426 226.856c-11.821 2.131-19.815-7.132-19.815-21.672V135.2c0-49.911-31.615-76.72-93.024-76.72-54.991 0-92.552 21.157-92.655 53.107-.027 5.738 2.131 11.356 5.296 16.769 5.095 7.826 14.303 13.076 24.85 13.076 16.055 0 29.068-12.116 29.068-27.063-.054-15.327-12.981-23.093-16.905-24.557 2.791-2.376 14.829-11.66 32.612-11.66 28.265 0 43.403 21.433 43.403 54.814v13.266c-21.213 0-45.013 2.131-61.75 6.215-40.953 8.954-62.536 32.274-62.536 61.322 0 32.763 26.06 53.231 67.355 53.231 28.666 0 52.482-10.033 63.647-26.813 7.057 14.166 22.688 23.098 42.796 23.098 26.011 0 39.626-13.58 43.929-29.715 1.111-4.593-2.357-7.479-6.271-6.714m-87.17-15.695c-2.211 15.619-13.002 24.942-28.639 24.942-17.132 0-28.666-11.536-28.666-29.791 0-14.144 6.32-26.52 20.108-32.47 9.29-4.105 23.794-6.345 37.192-6.714v44.033zM1077.52 226.856c-11.82 2.131-19.81-7.132-19.81-21.672V135.2c0-49.911-31.62-76.72-93.026-76.72-54.991 0-92.552 21.157-92.655 53.107-.027 5.738 2.13 11.356 5.296 16.769 5.094 7.826 14.303 13.076 24.85 13.076 16.054 0 29.068-12.116 29.068-27.063-.054-15.327-12.981-23.093-16.905-24.557 2.791-2.376 14.829-11.66 32.612-11.66 28.265 0 43.403 21.433 43.403 54.814v13.266c-21.214 0-45.013 2.131-61.75 6.215-40.953 8.954-62.536 32.274-62.536 61.322 0 32.763 26.06 53.231 67.355 53.231 28.666 0 52.481-10.033 63.647-26.813 7.061 14.166 22.691 23.098 42.791 23.098 26.02 0 39.63-13.58 43.93-29.715 1.12-4.593-2.35-7.479-6.27-6.714m-87.167-15.695c-2.211 15.619-13.002 24.942-28.639 24.942-17.133 0-28.666-11.536-28.666-29.791 0-14.144 6.319-26.52 20.108-32.47 9.29-4.105 23.794-6.345 37.192-6.714v44.033zM254.534.011h-33.75c-7.263 0-11.615 8.08-7.621 14.15l5.783 8.791a27.55 27.55 0 0 1 2.586 25.322l-60.553 152.398c-2.785 7.338-5.609 12.365-6.894 13.602-.683.661-1.832.857-2.726.19l-3.192-2.544c-1.014-.759-.954-1.871-.022-2.912 1.778-2.36 2.878-5.201 3.501-7.794.743-3.107.493-6.372-.645-9.361L99.717 56.213a37.85 37.85 0 0 1 .369-27.713l5.479-13.396c2.949-7.207-2.352-15.11-10.135-15.11H12.802C1.669 0-4.135 13.256 3.404 21.445l5.257 5.711a115.6 115.6 0 0 1 22.52 35.941l73.631 192.537a12.77 12.77 0 0 0 11.886 8.091h40.769c5.236 0 9.946-3.199 11.875-8.07l95.371-240.647C267.564 7.81 262.268.01 254.534.01"></path></svg>